<svg xmlns="http://www.w3.org/2000/svg" width="361" height="77" fill="none">
    <path fill="#1B1918" fill-rule="evenodd" d="M323.9 67.6c.1.2.5.3.7.3 5.6.4 13.4-6.3 15.6-11.3.4-.8.8-2.1.2-2.8-.5-.6-2-.3-2.6-.2A14.3 14.3 0 00333 56 71 71 0 00324 64a125.7 125.7 0 01-8.4 9.8l-.2.1h-.3v-.5l.7-1a79.3 79.3 0 018.3-9.7 261.3 261.3 0 007.9-11.2l.7-1c.2-.2.3-.2.5-.1.2 0 .2.3 0 .5l-.5.8A249.8 249.8 0 01327 60a66 66 0 018.2-6.2c1.3-.6 4.6-1.9 5.7-.5.8 1 .4 2.5-.1 3.5-2.3 5.2-10 11.7-15.7 11.9h-.6c-.5-.2-1-.3-1.2-.8v-1c.1-.1.3-.2.5-.1.1 0 .2.3.1.4v.4zM343.3 67.1c0-.2-.2-.3-.3-.2 0 0-5.4 2.5-7.4 2.3h-.2c0-.3.4-.8 2-2.4.3-.3.5-.4.5-.6V66l-.1-.1h-.3c-.7.5-2.7 1.2-3.3.8h.1l.3-.4c.1 0 .2-.3.1-.5 0-.2-.2-.2-.3 0l-.4.3-.5.5c-1.3 1.2-2.1 2.4-2 3.1 0 .3 0 .4.3.4h.1c1 0 2.2-1.3 2.5-2.3v-.2c.5 0 1.1 0 1.7-.3-.8.9-1.3 1.6-1.2 2.1 0 .4.3.6.7.6h.3c2.3 0 7-2.3 7.2-2.4l.2-.5zm-9.4.5c-.2.7-1.1 1.7-1.9 1.8.1-.3.6-1.1 1.7-2.2h.1l.1.2v.2zm20.6-.9c0-.2-.2-.3-.3-.2a23 23 0 01-6.9 2.3h-.2c0-.3.4-1.4 1.3-3v-.5-.2l-.3.1c-1.3 1-4.5 3.6-5.2 3.9h-.5s.1-.5.8-1.6V67c-.1-.2-.3-.2-.4 0-.8 1.3-1.1 2.1-1 2.6.2.3.4.3.6.3l.6-.1c.6-.3 2.9-2 4.2-3.1-.5 1.1-.7 2-.6 2.4 0 .3.2.5.6.5a24 24 0 007.1-2.4l.2-.5zm-1.2 2.7c1 0 2.2-1.4 2.5-2.3V67c.7.4 2.5.8 4 0 .2-.1.3-.3.2-.5 0-.2-.1-.3-.3-.3-2.1 1.2-3.7.1-4-.2l.3-.4V65c0-.1-.2-.2-.3 0l-.3.3-.5.5c-1.4 1.3-2.2 2.5-2.1 3.2 0 .2.1.4.3.4h.2zm0-.7c.2-.4.7-1.2 1.8-2.2l.2.1v.2c-.2.8-1.1 1.8-2 1.9zM307.2 65.2a336.2 336.2 0 01-12.7 9c-.5.4-1.2.4-1.5 0-.8-1 .4-3 1-4l1.2-1.7A87.7 87.7 0 01310 52.6c-1.7.4-3.7 1.3-5.2 2-1.4.8-5.8 3.2-6.2 4.8 0 .3.1.4.3.6.2 0 .3.3.2.5-.1.1-.3.2-.5.1-.5-.3-.7-.8-.6-1.4.5-1.9 4.7-4.3 6.4-5 1.8-1 4.8-2.4 6.8-2.5.2 0 .3 0 .3.2l-.1.4-1.6 1.4a109.6 109.6 0 00-15.3 17c-.3.5-1.5 2.4-1 3 .1.2.5 0 .7 0a159.5 159.5 0 0020.4-15.8l2-2c.3-.3 1.3-1.5 2-1.2.2.2.2.5.1.8v.2l-3.1 2.8-5 4a63.2 63.2 0 00-11 14.3h-.2c-.2-.1-.2-.4-.1-.5a61 61 0 018-11.1zm1 5.3c.2-.2.4-.1.5 0v.5l-.2.1s-.1.1-.2 0h-.3l.1-.5.2-.1zM106.6 23l8.6 18.7.6 1.4.7-1.6 8.2-18.4h2.5v25.3h-2.5V25.5l-9 20.5h-1L105 25.7v22.7h-1V23h2.5zm37.6 25.8c-2.4 0-4.5-.6-6.2-1.7a11 11 0 01-4.2-4.6c-1-2-1.5-4.2-1.5-6.7s.5-4.8 1.5-6.8a11.2 11.2 0 0110.3-6.3c2.4 0 4.5.5 6.3 1.6 1.8 1.1 3.2 2.7 4.1 4.6 1 2 1.5 4.3 1.5 6.8a15 15 0 01-1.4 6.8 11 11 0 01-10.4 6.3zm0-1c1.9 0 3.5-.6 4.9-1.5 1.3-1 2.4-2.3 3.1-4a15 15 0 001.2-6c0-2-.4-3.8-1-5.8-.7-2-1.7-3.5-3-4.8a7.4 7.4 0 00-5.4-2 8 8 0 00-4.7 1.4 9.2 9.2 0 00-3.2 4.1 17.8 17.8 0 00-.2 11.7c.7 2 1.7 3.6 3 4.9 1.5 1.3 3.3 2 5.4 2zm12.6.6l10.8-14.1L159 23h1.3l9.3 12.4-9.8 12.9h-3zM172.2 23h2.4v25.3h-2.4V23zm5 12.4l9.2-12.4h1.3l-8.4 11.2 10.7 14h-3L177 35.6zm33-12.4h2.4v25.3h-2.5V36h-13.6v12.3H194V23h2.5v12h13.6V23zm19.4 25.7c-2.4 0-4.4-.6-6.2-1.7a11 11 0 01-4.2-4.6c-1-2-1.5-4.2-1.5-6.7s.5-4.8 1.5-6.8a11.2 11.2 0 0110.4-6.3c2.3 0 4.4.5 6.2 1.6 1.8 1.1 3.2 2.7 4.2 4.6 1 2 1.4 4.3 1.4 6.8a15 15 0 01-1.4 6.8 11 11 0 01-10.4 6.3zm0-1c2 0 3.5-.6 4.9-1.5 1.4-1 2.4-2.3 3.2-4a15 15 0 001-6c0-2-.2-3.8-.9-5.8s-1.7-3.5-3-4.8a7.4 7.4 0 00-5.4-2 8 8 0 00-4.7 1.4 9.2 9.2 0 00-3.2 4.1 17.8 17.8 0 00-.2 11.7c.7 2 1.7 3.6 3.1 4.9 1.4 1.3 3.2 2 5.3 2zM269 35.1c1.4.1 2.6.5 3.6 1a6 6 0 012.4 2.2c.6 1 .9 2 .9 3.1 0 2.3-.8 4-2.4 5.1a11.7 11.7 0 01-7 1.8h-7.3V23h7.3c1.8 0 3.2.2 4.5.7a6 6 0 012.8 2c.7 1 1 2.1 1 3.4 0 1-.3 2-.7 2.7a6 6 0 01-2 2.1c-1 .6-2 1-3.1 1.2zm-7.3-.4h4.5a7 7 0 003.2-.7 5 5 0 002.8-4.7c0-1.6-.5-3-1.6-3.9-1.2-1-2.8-1.4-5-1.4h-3.9v10.7zm4.7 12.5c2.3 0 4-.5 5.1-1.6 1.1-1 1.7-2.4 1.7-4.3a5 5 0 00-1.8-4.1c-1.2-1-3-1.5-5.2-1.5h-4.5v11.5h4.7zm24.2 1.5a12 12 0 01-6.2-1.6c-1.8-1-3.1-2.5-4.1-4.5-1-2-1.6-4.2-1.6-6.8 0-2.7.6-5 1.6-7s2.5-3.5 4.4-4.6c1.8-1 4-1.6 6.4-1.6a12.6 12.6 0 017.3 2.3l-.5.9a11.6 11.6 0 00-6.7-2.2 9 9 0 00-8.6 5.7c-.8 1.9-1.2 4-1.2 6.3 0 2.4.4 4.4 1.2 6.3a9.1 9.1 0 008.6 5.7 10 10 0 007.4-3.3l.6.8a12 12 0 01-8.6 3.6zM303.7 23h14.4v1h-11.9v10.7h8.5v1h-8.5v11.5h12.6v1h-15V23.2zm21.7 0l8.6 18.6.6 1.4.7-1.6 8.3-18.4h2.4v25.3h-2.5V25.5l-9 20.5h-1l-9.6-20.3v22.7h-1V23h2.5zm25.7 0h2.7l-.9 18h-.8l-1-18zm1.4 25.7c-.5 0-.9-.2-1.2-.5-.3-.3-.5-.7-.5-1.1 0-.5.2-.9.5-1.2.3-.3.7-.5 1.2-.5s.9.2 1.2.5c.3.3.5.7.5 1.2 0 .4-.2.8-.5 1.1-.3.3-.7.5-1.2.5zM112.3 66.2v2.6h-1v-1.7h-6.8v1.7h-1v-2.6h.4c.6 0 1-.5 1.4-1.4.2-1 .4-2.4.4-4.5v-3h5.7v8.9h.9zm-2 0v-8h-3.6v2c0 1.5 0 2.8-.3 3.8a4 4 0 01-1 2.2h5zm7 1.1c-.6 0-1.1-.1-1.6-.5-.5-.3-1-.7-1.2-1.2a4 4 0 01-.5-1.9c0-.7.2-1.3.5-1.8a3.2 3.2 0 012.8-1.7c.7 0 1.3.1 1.8.4.5.3.9.7 1.2 1.3.2.5.4 1.1.4 1.8a4 4 0 01-.4 1.9 3.2 3.2 0 01-3 1.7zm0-.9a2.2 2.2 0 002.1-1.3c.2-.4.3-.9.3-1.4 0-.5 0-1-.3-1.4l-.8-1c-.4-.1-.8-.3-1.3-.3-.4 0-.8.2-1.2.4-.3.2-.6.5-.8 1a3 3 0 00-.3 1.3c0 .5.1 1 .3 1.4l.8 1 1.2.3zm11 .7h-1.1l-2.4-3h-1v3h-1v-6.7h1v2.8h1l2.1-2.8h1.1l-2.4 3.2 2.7 3.5zm1.2-6.7h6.2v.9H133v3.9c0 .3 0 .6.3.8.2.2.5.3.8.3h.9v1h-.9c-.6 0-1.1-.3-1.5-.6a2 2 0 01-.6-1.6v-3.8h-2.5v-1zm11.1 7c-.6 0-1.2-.2-1.7-.6-.5-.3-1-.7-1.2-1.2a4 4 0 01-.4-1.9c0-.7.1-1.3.4-1.8a3.2 3.2 0 012.9-1.7c.6 0 1.2.1 1.7.4.5.3.9.7 1.2 1.3.3.5.4 1.1.4 1.8a4 4 0 01-.4 1.9 3.2 3.2 0 01-2.9 1.7zm0-1a2.2 2.2 0 002-1.3c.2-.4.3-.9.3-1.4 0-.5 0-1-.3-1.4-.2-.4-.4-.7-.8-1l-1.2-.3c-.5 0-.9.2-1.2.4-.4.2-.7.5-.9 1a3 3 0 00-.3 1.3c0 .5.1 1 .3 1.4.2.4.5.7.9 1 .3.2.7.3 1.2.3zm8.7-6.2c.7 0 1.2.1 1.7.4.6.3 1 .7 1.2 1.3.3.5.5 1.1.5 1.8a4 4 0 01-.5 1.9A3.2 3.2 0 01148 67a3 3 0 01-1-1v4h-1v-9.6h1v1a3 3 0 011-1l1.3-.2zm0 6.2c.5 0 1 0 1.3-.3l.8-1c.2-.4.3-.8.3-1.4 0-.5-.1-1-.3-1.4l-.8-1-1.2-.3a2.2 2.2 0 00-2.1 1.3l-.3 1.4c0 .5.1 1 .3 1.4l.8 1c.4.2.8.3 1.3.3zM159.8 57.3h3.3c.9 0 1.6.3 2 .8.6.6.9 1.3.9 2.2a3 3 0 01-.8 2.2 3 3 0 01-2.2.8h-2.1v3.8h-1v-9.8zm3.1 5.2c.7 0 1.2-.2 1.5-.6.3-.3.5-.9.5-1.6 0-.7-.2-1.2-.5-1.5-.3-.4-.8-.6-1.5-.6h-2v4.3h2zm5.2-2.1h1v2.3h1.5c.8 0 1.3.2 1.7.6.4.4.6 1 .6 1.6 0 .6-.2 1.2-.6 1.6-.4.4-1 .6-1.8.6H168v-6.7zm6 6.7v-6.7h1V67h-1zm-3.6-1c.5 0 .8 0 1-.3.3-.2.4-.5.4-1 0-.3-.1-.7-.4-.9-.2-.2-.5-.4-1-.4H169v2.7h1.5zm6.7 0h.4c.4 0 .8-.3 1-1 .2-.7.3-1.7.3-3.2v-1.5h4.4V67h-1v-5.8h-2.5v1c0 1.4-.1 2.6-.4 3.5-.4.8-1 1.3-1.8 1.3h-.4v-1zm8.6-5.7h1v2.3h1.9c.7 0 1.3.2 1.7.6.4.4.6 1 .6 1.6 0 .6-.2 1.2-.6 1.6-.5.4-1 .6-1.9.6h-2.7v-6.7zm2.8 5.8c.4 0 .7-.1 1-.4.2-.2.3-.5.3-1 0-.3 0-.7-.3-.9-.3-.2-.6-.4-1-.4h-1.8v2.7h1.8zm12.9-6c.6 0 1.2.1 1.7.4.5.3.9.7 1.2 1.3.3.5.4 1.1.4 1.8a4 4 0 01-.4 1.9 3.2 3.2 0 01-4.2 1.4 3 3 0 01-1-1v4h-1v-9.6h1v1a3 3 0 011-1l1.3-.2zm0 6.2c.5 0 .9 0 1.2-.3.4-.3.6-.6.8-1 .2-.4.3-.8.3-1.4 0-.5 0-1-.3-1.4-.2-.4-.4-.7-.8-1-.3-.1-.7-.3-1.2-.3a2.2 2.2 0 00-2 1.3c-.3.5-.4 1-.4 1.4 0 .5.1 1 .3 1.4.2.4.5.7.9 1 .3.2.7.3 1.2.3zm8.3-6.2a3 3 0 012.8 1.6 3.5 3.5 0 01.4 2.1h-5.5c0 .7.2 1.3.6 1.8.5.5 1 .7 1.7.7.6 0 1 0 1.4-.3.4-.2.7-.5 1-.9l.7.5c-.3.5-.7.9-1.2 1.2-.5.3-1.1.4-1.9.4-.6 0-1.2-.1-1.7-.5-.5-.3-.9-.7-1.2-1.2-.3-.6-.4-1.2-.4-1.9s.1-1.3.4-1.8a3.2 3.2 0 012.9-1.7zm2.2 3c0-.8-.3-1.3-.7-1.6-.4-.4-.9-.6-1.5-.6a2 2 0 00-1.5.6c-.4.4-.7 1-.8 1.5h4.5zm8.7 3.9h-1.1l-2.4-3h-1v3h-1v-6.7h1v2.8h1l2.1-2.8h1l-2.3 3.2 2.7 3.5zm4.7.2c-.6 0-1.2-.1-1.7-.5-.5-.3-.9-.7-1.2-1.2a4 4 0 01-.4-1.9c0-.7.1-1.3.4-1.8a3.2 3.2 0 012.9-1.7c.6 0 1.2.1 1.7.4.5.3 1 .7 1.2 1.3.3.5.4 1.1.4 1.8a4 4 0 01-.4 1.9 3.1 3.1 0 01-2.9 1.7zm0-.9a2.2 2.2 0 002-1.3c.3-.4.4-.9.4-1.4 0-.5-.1-1-.3-1.4-.2-.4-.5-.7-.9-1-.3-.1-.7-.3-1.2-.3-.4 0-.8.2-1.2.4-.4.2-.6.5-.8 1a3 3 0 00-.3 1.3c0 .5 0 1 .3 1.4.2.4.4.7.8 1l1.2.3zm11.5-6h1V67h-.9v-5.2l-2.3 4.4h-.6l-2.2-4.3v5h-1v-6.6h1.1l2.5 4.8 2.4-4.8zm6.6-.2a3 3 0 012.8 1.6 3.5 3.5 0 01.4 2.1h-5.5c0 .7.2 1.3.6 1.8.5.5 1 .7 1.7.7.6 0 1 0 1.4-.3.4-.2.7-.5 1-.9l.7.5c-.3.5-.7.9-1.2 1.2-.5.3-1.1.4-1.9.4-.6 0-1.2-.1-1.7-.5-.5-.3-.9-.7-1.2-1.2-.3-.6-.4-1.2-.4-1.9s.1-1.3.4-1.8a3.2 3.2 0 012.9-1.7zm2.2 3c0-.8-.3-1.3-.7-1.6-.4-.4-.9-.6-1.5-.6a2 2 0 00-1.5.6c-.4.4-.7 1-.8 1.5h4.5zM249 67v-6.7h1v2.8h3.9v-2.8h1V67h-1v-3h-4v3h-1zm14.9-1v2.7h-1v-1.7h-5v1.7h-1v-2.6h.4c.9 0 1.3-1.4 1.3-4.3v-1.5h4.5v5.8h.8zm-1.8 0v-4.8h-2.6v1c0 1.9-.2 3.2-.8 3.9h3.4zm8.5-5.7h1l-3.7 9.5h-1l1.1-2.7-2.7-6.8h1l2.2 5.5 2.1-5.5zm5.5-.2a3 3 0 012.8 1.6 3.5 3.5 0 01.4 2.1h-5.5c0 .7.2 1.3.6 1.8.4.5 1 .7 1.7.7.6 0 1 0 1.4-.3.4-.2.7-.5 1-.9l.7.5c-.3.5-.7.9-1.2 1.2-.6.3-1.2.4-1.9.4-.6 0-1.2-.1-1.7-.5-.5-.3-.9-.7-1.2-1.2-.3-.6-.4-1.2-.4-1.9s.1-1.3.4-1.8a3.2 3.2 0 012.9-1.7zm2.2 3c0-.8-.3-1.3-.7-1.6-.4-.4-.9-.6-1.5-.6a2 2 0 00-1.5.6c-.4.4-.7 1-.8 1.5h4.5zm2.5-2.8h6.2v.9h-2.7v3.9c0 .3 0 .6.3.8.2.2.5.3.8.3h.9v1h-.9c-.6 0-1.2-.3-1.5-.6a2 2 0 01-.6-1.6v-3.8h-2.5v-1z" clip-rule="evenodd"/>
    <path fill="#67235D" fill-rule="evenodd" d="M63.2 28.6c2.1-.5 4.6 0 7.5.3.2 1.3 1.5 0 3 1.2.4.3-.5.7-.5.7-.2.1-.6.7-.4 1-1.6 0-3.3.1-3.3 3.6 0 1.7.7 4 1.6 6-3 .4-6 .6-8.3.5-.8 0-1.5-.2-2-.5 5.5-3 5.4-10.3 2.4-12.8zm12.7.2c2.3-.4 4.7-1.3 7.3-3.2l2.6-2 .3.1c1.6.2 2-.6 2.1.7 0 .5 1 0 1.6.1.3 0 .4 1.3.4 1.6 0 .3 1-.5 1.5-.5.2 0 .5.6.8 1-1 3.4-3.3 6.7-6.2 9.2-.3-1.3-.7-2.6-1.2-3.7-1.4-2.8-4.5-5-6-2.8-.3-.9-2.4 0-3-.3a3 3 0 00-.2-.2z" clip-rule="evenodd"/>
    <path fill="#5B750E" fill-rule="evenodd" d="M92.6 26c0-.3-.4-1.1-.8-1.1-.5 0-1.2.6-1.2.3 0-.2-.1-1.2-.4-1.3-.5 0-1.6.4-1.7 0 0-1-.2-.5-1.5-.7-.5 0-.8 0 0-.6l2.2-1.3c.2-.2 1-.4 1.7-.4 0-.1 0-.2.2-.3 1.1-1 .7-1.1 1.3-2.4.5-1 .8-1.5 1.2-.3.2.5-.9 3.3-1.1 3.8v.5c.3 1.3.4 2.5.1 3.9z" clip-rule="evenodd"/>
    <path fill="#FFEA00" fill-rule="evenodd" d="M86 38.4c-.1-2.2-.6-4.3-1.5-6-1.3-2.6-3.7-4.4-5.1-2.4-1.6 2.4-2.6 0-4.2 2-1 1.2-5-1.5-5 3.3 0 1.8.7 4 1.7 6 5.3-.7 10.2-1.7 14.2-3z" clip-rule="evenodd"/>
    <path fill="#5B750E" fill-rule="evenodd" d="M73.9 30.9c-.2.1-1.3.8-.5.9.8.1 1.2-.1 1.7-.6.6-.6 1.3-.6 2-.8.5 0 1.6-.3 1.4-1-.2-.5-2 .4-2.5 0-.5-.3-.4-.5-1.2-1-1-.5-1.5-1-2.8-1-.9 0-.7 0-.7 1.2s1.9-.5 3.1 1.4c.2.3-.5.9-.5.9z" clip-rule="evenodd"/>
    <path fill="#FFEA00" fill-rule="evenodd" d="M33.1 10.2l-.1.1c-.3.8-.2 2.6.2 4.8l1-.5c-.6-1.8-1-3.3-1.1-4.4zm4.8 20l.5.6 2.1-1-1.2-2.8-2.2 1.2.8 2zm.7 1l1.1 1.5-1 1.4 1.2-.8 1 1.5c0-1.2.2-2.4.3-3.4l-.5-1.2-2 1zm2.8-.6l.2-.8-.5.2.3.6zm.4-1.4a5.9 5.9 0 011-2l-.7-1.4-2.4 1 1.2 2.8.9-.4zM43 27l1.6-1.5-.2-.4-2 .7.6 1.2zm2-1.7l.6-.4-.1-.2-.7.3.2.3zm.2-1l-1-1.8-.7.2c.4.7.8 1.3 1 1.9l.7-.3zM44 22l-1.3-2.2-.6.2 1.3 2.2.6-.2zm-1.5-2.6a80 80 0 00-1.2-2l-.7.3 1.2 1.9.7-.2zM41 17l-1.2-1.8-.6.2 1.2 1.8.6-.2zM39.5 15l-1.2-1.5-.5.1.7 1 .4.6.6-.2zM38 13c-1-1.1-2.1-2-3-2.5.7.6 1.6 1.6 2.5 2.8l.5-.2zm3.9 12.4l-1-1.8-2.3.9.9 2c.8-.4 1.6-.8 2.4-1zm-1.2-2.3L39.5 21l-2 .9 1 2.3a40 40 0 012.2-1zm-1.4-2.6l-1.1-2-1.8.8.9 2 2-.8zM38 18.2l-1-1.9-1.5.7.8 1.9 1.7-.7zm-.1-1.1l.5.9 1.5-.6-1.2-1.7-1.3.5.5.9zm.7 1.3l1.1 2a53 53 0 011.7-.7l-1.2-1.9-1.6.6zm1.3 2.4l1.2 2.2a59 59 0 011.9-.7l-1.4-2.2-1.7.7zm1.4 2.6l1 1.9 2-.7a72 72 0 00-1.1-1.9l-1.9.7zm-4.5-7.5l-1-1.6-1 .5c.1.6.3 1.1.6 1.7l1.4-.6zm-1.2-2l-2-3.3c.1 1 .5 2.3 1 3.8l1-.5zM34 10.2c.5.8 1.3 2 2.1 3.6l1-.4a14 14 0 00-3.1-3.2zm2.4 4l.9 1.6 1.2-.5-.3-.4-.8-1.1-1 .4zm-2.4 4l.5 1.7L36 19l-.8-2-1.2.7v.3zm.6 2.1l.7 2.1 1.7-.8-.9-2.1-1.5.8zm.8 2.6l.8 2.4 2-1-1-2.3-1.8.9zm1 2.8l.6 2 2.2-1-.9-2-2 1zm-3-10.2l.4 1.8 1.3-.6a71 71 0 01-.7-1.7l-1 .5z" clip-rule="evenodd"/>
    <path fill="#E52215" fill-rule="evenodd" d="M42.7 28.5c1.8-3 4.5-4.4 7.5-3.8l1.6.5-1.6.8c-.4.1.4.4.8 1 .5.9 2.8 2 4 1.5.8-.4 1.5 2.7 3.3 2.6.1-.4.1-1.6.7-2.5h3.4c3.3 2.6 3.2 10.7-3.7 13-2.4 1-8.8 1.1-12.8.1l-4.5-6.3c0-2.7.6-5.7 1.3-7zm20.4 7.9c.3-.4.7-1.5.3-1.7-1.5-1-1.5 3.6-.3 1.7zm-.8-6.8c-.2-.1-1.4 0-1.5.3-.1.8.4 1.5.8 2.3.2.5 1.5 3 2 1.2.3-1.2-.3-3.4-1.3-3.8z" clip-rule="evenodd"/>
    <path fill="#F59600" fill-rule="evenodd" d="M44.7 41.2c-1.5-2-3.2-4.7-5-7.4l-2.4 2.3a16 16 0 011.8-3l-3.5-5c-1.4 1.4-3 2.9-4.2 3.4.5-.5 1.7-2.4 2.5-3.1.4-.5.8-.8 1.1-1a38.7 38.7 0 00-5.4-6.1c-1 1.5-4.3 4.8-4.3 4.8.2-.3.8-1.8 1.7-2.8.9-.9 2-1.6 2.6-2.1l-.6-.4c-1.4-1-4.3-1.8-6.7-1.6-.1 4.9-2 3.8-4 2.4a6.4 6.4 0 00.7 7.7h.2c.7-.3 3.3-2.4 3.3-3 0 .8-1.9 2.5-3 3.6a60 60 0 003.5 4c1.2-.5 3.6-3 5-4.2 0 1-2.5 3.3-4.3 5a56 56 0 003.5 3.3c.8-.6 1.7-1 2.2-1.5 0 .5-.6 1.3-1.4 2.1 1.3 1.1 2.5 1.9 3.4 2 1 .4 14.4 2 13.3.6zM23 19.9v1.3c.7-.3 2.2-.6 3-.6.3 0 1.3.1 2.4.6-.9-.7-2.5-1.5-5.4-1.3z" clip-rule="evenodd"/>
    <path fill="#5B750E" fill-rule="evenodd" d="M21.7 16.4c-.1-1.5-1-8.3-2.3-8.7-.6-.3-3-.6-2.7.3 0 .2 1 3.7.6 3-.6-1-1.5-.8-2.3-3.3C15 7 13 5 12.7 6.5c-.3 1.8-2 1.1-1.2 2.5.2.3-2.7-.9-1.7.8 1 1.6-3.3 1-1 2 1.4.6 1.9 2.1 1.8 3.5 0 2.2 3 1.7 2.8 1.7-.5 0-.8 1.8 2 2.1 2.3.2 7 7.4 6.3-2.7zM62.4 28.1c-2.6-4-4.2-.2-3.7-4.3.2-1 .6-2.3-1-2.3-.3 0-.7 3.5-1.2 3.3-.9-.2-.5-.6-2-.6-.2 0-3 0-2.6.5 1 1 1.3.5-.5 1.2-.3.2 0 .3.3.8.4.7 2.5 1.2 3.5.7.7-.2 1.4 2.8 2.9 2.7 0-.3 0-1.7.6-2.5l2.5.5 1.3.1z" clip-rule="evenodd"/>
    <path fill="#FFCE00" fill-rule="evenodd" d="M85.5 38.5c-.2-2-.7-4-1.5-5.5-1.1-2.4-3.1-4.3-4.4-2.4-.4.6-.8.9-1.1 1 1.7 1.3 2.8 5 2.7 8l4.3-1zM74.6 33c-1.4.2-3.8-.8-3.8 2.8 0 1.6.7 3.7 1.6 5.5l4.7-.7c-1-1.2-2.5-4.5-2.6-6l.1-1.6zM33.2 10.2c-.8.2-1 2-.8 4.4 1.1-1.6 3-2.1 4.8-2.4-1.5-1.5-2.8-2.3-4-2z" clip-rule="evenodd"/>
    <path fill="#FFCE00" fill-rule="evenodd" d="M33 18.3l.4 2.2.6-.4-.5-1.9V18l-.5.3zm-.6-6.4c-.1 1 0 2.2.1 3.6l.3-.2a22 22 0 01-.4-3.4zm.2 4c0 .7.2 1.3.3 2l.4-.3a54 54 0 01-.4-1.8l-.3.2zM35 26.5l1.2 1.7.3-.1-.8-2-.7.4zM33.5 21L34 23l.8-.4-.7-2.2-.6.5zm.6 2.6l.7 2.5.9-.6-.8-2.4-.8.5z" clip-rule="evenodd"/>
    <path fill="#F07A00" fill-rule="evenodd" d="M18 22a6.4 6.4 0 001 7.3h.2c.5-.3 2.3-1.5 3-2.4l-.3-.3c-1.2-1.8-3.1-3.3-3.7-4.1a3 3 0 01-.2-.4zm4.3 5c-.6.8-2 2-2.9 3a60 60 0 003.6 4c.7-.4 2-1.5 3-2.6L22.4 27zm4.1 5l-2.7 2.6a56 56 0 003.5 3.4c.8-.6 1.7-1 2.2-1.5 0 .5-.6 1.3-1.4 2.1 1.3 1.1 2.5 1.9 3.4 2 .3.2 1.6.4 3.3.6-3.3-3.4-5.5-5.5-8.3-9.3z" clip-rule="evenodd"/>
    <path fill="#BD1F15" fill-rule="evenodd" d="M42.7 28.5c1.8-3 4.5-4.4 7.5-3.8l1.6.5-1.6.8c-.3 0 0 .2.2.4-5.2 1.3-6.4 9.8-5.3 14.2-1.2-1.5-2.4-3.3-3.7-5.2 0-2.7.6-5.7 1.3-7z" clip-rule="evenodd"/>
    <path fill="#fff" fill-rule="evenodd" d="M43.7 42.1c.5 0 1.4 0 2-.2 1.1-.2 2.5-1 3.4-2 1.8-2.3-1.5-6.6-2.3-9.7-.6.9-1 1.7-1.6 2.4-1 1.2-1.6 1.4-2 2.2-.6 1-.5 1.2-.5 1.8-.5-.1-.8-.3-1.4-.3-1.3 0-2.5.9-3.8.5 0 2.4 2 4.3 2.6 5.1.6.8 1.5-.4 2.2.2h1.4z" clip-rule="evenodd"/>
    <path fill="#67235D" fill-rule="evenodd" d="M45.4 41.4c6.6-2.3 2.7-5 1.3-10.5 0 0-1.1 1.9-1.6 2.3a6.5 6.5 0 00-2.2 4.2l-.5-.3c-1.7-.8-2.9.4-4.6 0 0 .3 3.8 7.8 7.1 4.6-.8-.3-3.5-2.5-4.6-3 1.7 0 3.9 2.2 4.8 2.7v-.9c.1-1.8.8-5.2 1.4-5.7l.1 1.3c0 2.6-.3 2.2-1.2 5.3z" clip-rule="evenodd"/>
    <path fill="#5B750E" fill-rule="evenodd" d="M29.4 3C33.1 8.7 83 25.5 84.7 19.2c.6-2.2-5-5.4-9.3-7.6C60.4 3.8 26.2-2 29.4 3z" clip-rule="evenodd"/>
    <path fill="#4C6111" fill-rule="evenodd" d="M29.4 3C33.1 8.7 83 25.5 84.7 19.2v-.7C78.2 22.3 33.7 7 30.2 1.4c-1 .3-1.2.8-.8 1.5zM62.3 4.6s1.1-3.5.8-3.9C62.8.3 61.4 0 61 .6c-.7 1-1.5 3.3-1.7 3.3a10 10 0 00-5.7.3c.6.6 1 1 2.2 1.1-.6.4-1.9 1.2-2.3 2.3.9.3 3 0 4.2-.9 0 1.3.1 2.5.8 3.5.4-.2.6-.3 2-2.2.5.7 2.1 2.3 3 2.1 0-.3.2-1.4-.3-2.3 0 0 1.1.3 3.6.3-2-2.3-3.8-3.2-4.5-3.5zM19 7.5c-1-.1-2.6-.2-2.3.5 0 .2 1 3.7.6 3-.1-.1 1.4 4 1.2 4 .2 1.5-3.3-2-4.4-3.4L11.8 8c-.4.2-.7.4-.3 1.1l3 4.9c.8 1.4-6.8-3-6.3-2.4l.7.4c.6.2 1 .7 1.3 1.3 3.6 4.2 4.3 2.7 6.2 3.7 1 .5 2.3.7 4.4 4.3l.1.4c.4-.3.6-1 .8-2l-.3-.2c-.3-.6-2.3-10.6-2.5-11.9z" clip-rule="evenodd"/>
    <path fill="#963685" fill-rule="evenodd" d="M70 38.4l.6 1.8c-3 .6-5.4.8-8.4.2.7-.6 1.3-1.3 1.8-2 1.8.3 3.8.3 6 0zM90.9 26l.8-.3.3.2-.1.6c-.2.1-.3.3-.4.6-.6 1.6-1.6 3.3-2.6 4.7L86 34.9c-.2-.9-.5-1.6-.8-2.3.5-.5 1.8-1.4 3-2.7 1.2-1.4 2.4-3.3 2.6-4z" clip-rule="evenodd"/>
    <path fill="#ECECED" fill-rule="evenodd" d="M9.4 41.8c-.5-2-2-3.8-3.4-5.5-.2-.3-.5-.8-1-1-1.3-.8-2.7-1.7-1-2.9.8-.6 1.4 1.1 2.4-.6.6-1 2.3.3 1.2 2-.6 1 5 6.5 4.4 7.3-1 1-2.6.5-2.6.7z" clip-rule="evenodd"/>
    <path fill="#9B9D9F" fill-rule="evenodd" d="M9.4 41.8c-.5-2-2-3.8-3.4-5.5L5 35.1c-1.4-.7-2.6-1.5-.9-2.7l.6-.1c-1 .1-1.3 1.7 0 2.2 1.8.8 5.3 6 5.4 7.3h-.6zM6 33.4c-.4-.1-1.1-.4-.3-.5.5-.1.5-.5.8-.5.1 0 .1 1.1-.5 1z" clip-rule="evenodd"/>
    <path fill="#A3550B" fill-rule="evenodd" d="M14.3 61.4C12.2 59.7 6.8 41.5 9.5 41c.8-.1.6-1.8 1.3-.2 1.4-.3.8-2.7 2-2 .8.6 7.2.8 11.8 2.8C40 48.2 40.2 56 22.4 60.7c-2.8.7-7.8 1-8 .7z" clip-rule="evenodd"/>
    <path fill="#82430C" fill-rule="evenodd" d="M14.3 61.4C12.2 59.7 6.8 41.5 9.5 41c.8-.1.6-1.8 1.3-.2 1.1-.2 1-1.8 1.5-2-.3.3-.3.8 0 1.2-.3.2-1 1-1 1.3-.6-.3-.9-.3-1.2.2-.3.7-.4 1-.2 1.8.7 2.8 1.4 6.4 2.2 9 .4 1.3 5.2 11.5 2.2 9.1z" clip-rule="evenodd"/>
    <path fill="#868789" fill-rule="evenodd" d="M36.1 68.2a68.3 68.3 0 01-25.2.2C3.5 67 .9 65.5.9 64.6c-.2-.5-.6-2.5.4-2.8 1.7-.4 9.2 2 10.6 1.2 3.3-.5 28-2.8 28-2.4.6 7.4-3.3 7.4-3.8 7.6z" clip-rule="evenodd"/>
    <path fill="#9B9D9F" fill-rule="evenodd" d="M7 66.9c-5.2-1.2-6-1.5-6.2-2.3 0-.5-.5-2.5.5-2.8 1.7-.4 9.2 2 10.6 1.2l9-1 .2 2.8 1 3.5-.1.4c-3 0-6.7-.3-9.7-.6l-3.5-.5-1.9-.7z" clip-rule="evenodd"/>
    <path fill="#B1B3B4" fill-rule="evenodd" d="M.8 64.6c0-.5-.5-2.5.5-2.8 1.2-.2 5.5.9 8.3 1.2-.5 1.1-.6 1-.6 2.3l.4 2.4C7.8 67.4 1 66 .8 64.6z" clip-rule="evenodd"/>
    <path fill="#F07A00" fill-rule="evenodd" d="M33.9 61.5c-18 5.8-29 2.8-31.4.3-.5-.4-.4-1.6-.3-1.9.3-.5 2.8-.6 3.4-1 3.7-2 9.3-2.5 14.5-3 9.2-1 18.1-.2 19.5 3.8 1.7 5.4-5.2 1.7-5.7 1.8z" clip-rule="evenodd"/>
    <path fill="#F59600" fill-rule="evenodd" d="M36 65.4a81.6 81.6 0 01-25.3.2c-11.3-2.2-11.1-3.5-8.4-4 .9-.2 4.3.5 7.4.6 2.5 0 9.4 0 9.4-1 .2-.7-6.3-1.5-8.3-1.4-4.1.2-9.4 1.8-8.5 0 .2-.5 2.7-1 3.3-1.3 3.7-2.1 9.2-2.6 14.5-3.1 9.2-1 18.1-.2 19.4 3.8 1.8 5.4-3 6-3.5 6.2z" clip-rule="evenodd"/>
    <path fill="#FAB341" fill-rule="evenodd" d="M23 61.2l.4.2c-.3.4-1.2.7-2 1l-.8.5-1.4.6c-1 .3-2 .7-2.8 1.8a3.8 3.8 0 01-.6.6l-.2.2c.1 0 .4 0 .6-.2l.4-.4c.7-1.1 1.7-1.5 2.7-1.8.5-.2 1-.3 1.4-.6l.9-.4c.8-.4 1.8-.8 2-1.3l1 .1a12 12 0 00-1.4 1.6l-1.7 2.6-.3.5.2.1.3-.5 1.7-2.6 1.3-1.5.1-.1a24.3 24.3 0 002 0c0 .3-.3.6-.4.8l-1 1.6-.3.4-.8 1.7.2.1.8-1.7.2-.4 1-1.6.7-.9c.6 0 1.1 0 1.4-.2a12.9 12.9 0 01-1 2.3l-.9 1.4-.3 1h.2l.3-.9.8-1.3.6-1.1.6-1.4 1-.2-.1.7a17 17 0 01-1.2 4l.2.2.6-1.7.6-2.5.1-.7 1.2-.2-.4 1.3a9.5 9.5 0 01-.2.8l-.1 1.8c0 .6.1 1.2.3 1.3h.1V66l-.2-1.1a8 8 0 01.3-2.5l.5-1.4 1-.2-.1.2-.1.2a5 5 0 00-.5 2.4c0 1 .2 2 .5 2.4l.2-.1c-.3-.5-.4-1.4-.4-2.3 0-1 0-1.8.4-2.3v-.1l.2-.4.6-.1h.2c-.5.5-.6 1.6-.5 2.5 0 1 .2 2 .4 2.4l.2.2.2-.2-.2-.1c-.2-.4-.4-1.3-.4-2.3 0-.9 0-1.9.4-2.4l.3-.3 1.3-.1c.2.6.1 1.7 0 2.8 0 1-.3 1.8-.5 2l.2.2a10.4 10.4 0 00.6-5h1.3c.2.3.3 1.3.2 2.3 0 1-.1 1.9-.4 2l.2.3c.3-.3.4-1.2.5-2.3 0-1 0-1.9-.2-2.4h1.1c.3.5.5 1 .6 1.7.1.5.2 1 0 1.4h.3V62l-.6-1.6h1.2v-.2h-1.3c.2-1 .2-1.2 0-1.6l-.4-1H38l.4 1.1c.1.4.2.5 0 1.5H37v-.2c.3-.7.4-1 .4-1.4 0-.4-.2-.7-.4-1.4l-.1-.3-.2.1v.3c.3.6.4 1 .4 1.3l-.2 1.4-.1.2h-1.4l.1-.5c.2-.7.4-1.6-.6-3.5h-.2c1 2 .7 2.8.6 3.4l-.1.6-1.3.2c-.9-1-.6-2.5-.6-3V57l.2-1.3-.2.2-.2 1.1v.2c0 .6-.3 2.1.5 3.1a10.9 10.9 0 00-.8.2l-.2-.4a3 3 0 01-.3-.9c-.3-1.4-.3-1.7-.1-2.2l.2-1.3V55.4h-.2v.2L32 57c-.1.6-.2.9.2 2.4 0 .4.2.6.3.9l.1.4-1 .1-.1-.6-.5-1.6v-.3c-.2-.8-.5-2-.3-2.8h-.2c-.2.7 0 2 .2 2.9v.2c.1.2.4 1 .5 1.7l.3.5-1.2.2h-.1c0-.5-.2-1-.5-1.7-.2-.5-.5-1-.5-1.7 0-.4-.2-1-.4-1.5l-.5-1-.1.2.4.9.3 1.4c.1.7.4 1.3.6 1.8.2.6.5 1.2.4 1.7l-1 .1c0-.3-.3-.7-.6-1l-.4-.8-.4-.9c-.3-.4-.5-.8-.6-1.3a7.3 7.3 0 00-1.3-2l-.1.3.6.8.5 1a19.5 19.5 0 011 2.2l.6.8c.2.3.5.7.5 1l-1.5.2c0-.8-1-2-1.8-3-.7-1-1.4-2-1.7-2.9l-.2-.2h-.2v.2l.1.1c.4.9 1.1 2 1.9 2.9.8 1 1.6 2.1 1.7 2.9a20.2 20.2 0 01-2.1 0c0-.4-.1-.9-.3-1.3l-1.3-1.5a13.9 13.9 0 01-2.6-2.9l-.2-.2-.2-.1v.2l.2.3a21.5 21.5 0 002.6 2.8c.4.4 1 1 1.3 1.5l.3 1.1h-1c0-1.3-.9-1.4-2-1.5a5 5 0 01-3-1.3c-.4-.3-.7-.7-.9-1.2 0-.4-.2-.7-.4-1l-.6-.6h-.1l-.1.1.6.7.4.8c.2.6.6 1 1 1.4.3.4.8.6 1.3.9.6.3 1.3.4 1.9.4.9.1 1.6.2 1.8 1.2l-.7-.2v.2zm-20.5.3h.3c-.3.3-.4.6-.4.9l.2 1h-.3l-.1-1 .3-.9zm.9 0l.2.1-.2.4v1a2.2 2.2 0 00.1.8h-.2L3 63v-1l.3-.4zm1 .2h.2v.2l-.2.4v1c0 .4.2.7.3.7l-.2.1c-.2 0-.3-.3-.3-.7v-1.2l.1-.3v-.2zm1.4.2H6v.1c-.2.5-.3.8-.2 1.2 0 .4.2.9.5 1.3H6c-.3-.5-.4-.9-.5-1.3 0-.4 0-.8.3-1.3zm1.4.1h.3v.2a6 6 0 00-.3.5V64c0 .3.3.7.4.7h-.2c-.2 0-.3-.3-.4-.7a5.6 5.6 0 010-1.3l.2-.6zm2.3.2h.2a4.7 4.7 0 00-.5 1.2v1c0 .5.1.4.2.8-.2 0-.3-.1-.4-.3v-1.6a4.7 4.7 0 01.5-1.1zm2.2 0h.3c-.4.4-.4.6-.6 1v.4c-.3.6-.1 1 0 1.4l.1.6h-.2l-.1-.5c-.2-.4-.3-.9 0-1.6v-.3l.5-1zm2.3 0h.4l-.2.1-.1.2a4.1 4.1 0 00-1.2 3.2h-.3c0-.6 0-1.2.3-1.8a4.4 4.4 0 011.1-1.7zM17 62a16.1 16.1 0 00.5 0c-.3 0-.6.3-.6.3a6 6 0 00-1.6 2.4c-.2.6-.5 1.1-.7 1.3l-.2-.2c.2-.1.5-.6.7-1.2.4-.8.8-1.9 1.6-2.5l.3-.1zm1-1.4h-.3l-.9-1.3-.8-1.2-.3-.5c-.3-.5-.7-1.1-.7-1.6h.3c0 .4.3 1 .6 1.5.1.2.3.3.3.5l.8 1.2c.4.5.9 1 1 1.4zm-3-.5h-.4l-.2-.6c-.6-1-1-1.9-1.2-3.2h.2c.2 1.3.6 2.1 1.2 3.1l.3.7zm-2.2-.2h-.4l-.4-.5-.1-.3a23 23 0 01-.6-2.5h.2l.2 1.2a22.6 22.6 0 00.5 1.5l.3.4h.2v.1h.1zm-2 0h-.3l-.2-.6-.6-1.7v-.7h.2v.7a7 7 0 001 2.2zm-2.3.1h-.2l-.2-.5V59c-.2-.6-.2-1-.2-1.5H8v-.1a.4.4 0 010 .1l.1 1.4.2.6.1.5zm-1.2.2H7a5.8 5.8 0 01-.5-1v-.7-.3h.2V59l.3.7.2.4zm-1.4.2h-.2c-.1-.4-.3-1-.3-1.8h.2c0 .7.2 1.4.3 1.8zm-.8.1h-.3v-.4a3.2 3.2 0 010-1.3H5v1.7zm-1 .1H4c0-.4-.1-1.2.2-1.6l.2.1c-.3.3-.3 1.1-.2 1.5zm-.9 0H3c0-.4.1-.9.5-1.4H3.7c-.5.6-.5 1-.6 1.4zm.4 3.2zm0 0zm30.7-2.2l.3-.3.2.8v1.5l-.4 1.3-.2-1.7v-1.6zm.4-.5c-.2 0-.4 0-.6.4-.1.2-.2 1-.1 1.7 0 .9.1 1.7.3 1.9.3 0 .6-.6.7-1.5v-1.5c0-.5-.1-.8-.3-1zM21.9 59h-.2l-1.1-.5c-.3 0-.6-.2-.9-.4l-.6-.8-.1-.4v-.2H20l.4.3.5.4.4.3A6.4 6.4 0 0122 59h-.1zm-.3.1l.2.1h.3l.1-.3-.1-.3a6.8 6.8 0 00-1.1-1.4l-.5-.4-.5-.3-.7-.1H19l-.3.3v.3l.2.4.7.9.9.5 1.1.3zm-.7 6l-.2.1c-.2.3-.3.4-1 .2v-.1-.4l.4-.6a12 12 0 011.9-1.2h.1c0 .1 0 .4-.3.8A6 6 0 0121 65zm0 .3l.2-.2 1-1.2.3-1c-.1-.2-.3-.2-.5-.1l-.5.2-1.4 1a2 2 0 00-.6 1.1l.1.4h.1c.8.2 1 .1 1.3-.2zm13.3-8.5l.2.4a5.7 5.7 0 01.3 1.5v.4h-.2c-.1 0-.2 0-.3-.2a1.7 1.7 0 010-.7v-.5c-.1-.4-.2-.8 0-1v.1zm.4.3l-.3-.5c-.2-.1-.3 0-.4 0V58.4l.1.7c.1.2.3.4.5.4a.4.4 0 00.3-.2l.1-.5V58a6 6 0 00-.3-.8z" clip-rule="evenodd"/>
    <path fill="#ECECED" fill-rule="evenodd" d="M36 65.4a81.6 81.6 0 01-25.3.2C1.8 64 0 62.7 1 62l.3.6c.2.1.7.6 1.1.7 2.1.9 6.4 1.6 7.4 1.8 2.3.6 7.1.8 9.5 1 .8.2.6 0 1 0h.4c.2.1.5.1.8 0a11.3 11.3 0 013.7 0h1l.6-.2c.6.2 1.6 0 2.5.1 2 .1 7.8-.7 9.3-2.3l.1-.2 1.2-2.8c.5 4-3.5 4.6-4 4.7zM5.1 58.8c-.7.4-.7.3-1.5.4-.5 0-1 .3-1.2.6l-.2.5v-.6c.3-.5 2.8-1 3.4-1.2a33 33 0 0114.2-3.3c4-.2 8.4-.5 11.7-.2 4.5.5 7.3 1.9 8 4.2v.1c-3-4-9.4-4.1-14.5-3.8-1.4 0-5 0-7.4.2A70.2 70.2 0 007.3 58L5 59z" clip-rule="evenodd"/>
    <path fill="#ECECED" fill-rule="evenodd" d="M22 60.8c.4.2 1.1.2 1.1.4 0 0-.7-.2-1 .5-.5.9-3 1-3-.5 0-1.1 1.2-1.2 2-1 .6.1.6.4 1 .6z" clip-rule="evenodd"/>
    <path fill="#F07A00" fill-rule="evenodd" d="M20.5 60.8c-.4 0-.8.2-.8.4s.4.4.9.4.8-.2.8-.5c0-.2-.4-.4-.9-.3z" clip-rule="evenodd"/>
    <path fill="#fff" fill-rule="evenodd" d="M24.6 39c-.3 1.5.1 3.8.7 5.2-1.7-.3-3.2-.6-5.1-.1-2.4.5-1.7 5.1-.6 6.3 1.6 1.8 6.2 4.1 9.2 4.7A43.4 43.4 0 0037.3 69c1.5.4 3 .8 4.5 1L42 43c-6.7-1-12.8-2.5-17.4-4z" clip-rule="evenodd"/>
    <path fill="#5B750E" fill-rule="evenodd" d="M86.3 39.3c.2 1.6.2 3.4-.1 5.3 1.7-1 4.4-1.3 6.4-1.1 2.2.1 1.6 3.6.5 4.8a20.1 20.1 0 01-9.2 4.2 84.6 84.6 0 01-8 15 78.6 78.6 0 01-38.2.2A48.7 48.7 0 0129.5 54c-3-.7-7.3-2.6-8.8-4.4-1-1.1-1.7-4.6.6-4.7 1.5-.1 3.6.3 5.3.6-.4-1.7-.8-3.3-1-4.8 12 3.8 44.4 3.9 60.7-1.5zm-58.9 9.1L27 47c-.7-.2-4.2-1.6-4.2-.5 0 .4 2.8 1.5 4.6 2zM86 45.5l-.3 1.6c1.6-.5 5.3-1.7 5.3-2.2 0-1.2-4.2.5-5 .6z" clip-rule="evenodd"/>
    <path fill="#4C6111" fill-rule="evenodd" d="M42.6 68.8c-2.3-.3-4-.8-4.9-1.1A48.7 48.7 0 0129.5 54c-3-.7-7.3-2.6-8.8-4.4-1-1.1-1.7-4.6.6-4.7 1.5-.1 3.6.3 5.3.6-.4-1.7-.8-3.3-1-4.8 1.6.5 3.6 1 6 1.3.9 5.5 4.7 20 11 26.7zM27.4 48.4L27 47c-.7-.2-4.2-1.6-4.2-.5 0 .4 2.8 1.5 4.6 2z" clip-rule="evenodd"/>
    <path fill="#fff" fill-rule="evenodd" d="M95.7 69.7l-.4.3c-.4.4-1 .6-1.5.8l-1.7.2a6.8 6.8 0 01-2.7-.6 4 4 0 01-1-.6c-.3-.3-.5-.6-.6-1l-.5-.1a3.8 3.8 0 01-1 1 5.8 5.8 0 01-3.2.8 6.8 6.8 0 01-3.1-1h-1.5c-.2.2-.4.3-.8.3h-1l-.9.1a2.4 2.4 0 01-1 0l-.4.2a6.8 6.8 0 01-4.4-.2 4.5 4.5 0 01-1.6-1l-.6.3-1 .5c-.4.1-1 .2-1.4 0l-1-.2-.8-.1c-.4-.1-.6-.3-.7-.4-.7 0-1.5-.1-2-.5-1.4-.8-2-2.2-2.4-3.4l-.1-.2c-1.3-.7-1.2-1-.9-1.8v-.3c0-.6 0-1 .2-1.4.1-.4.3-.6.6-.8.3-.1.7-.2 1 0 0-.5.1-.9.3-1.2.3-.4.7-.8 1.3-1H61.7a7.5 7.5 0 011.4 0v-.2a2 2 0 01-.2-1c0-.4.1-.7.3-1l.8-.8c.3-.2.7-.3 1.1-.2.2 0 0-.1 0-.2.3-.5.7-1 1.7-1.4 3-1 4-.6 6.2.4.3 0 .6.2 1.1.4 1.3.6 2.4 1.2 3.2 2 .7.8 1.2 1.6 1.6 2.6h2l.3.1.5.2c.5.3 1 .6 1.1 1 .2.4.3.8.2 1.2l.7.1v-.2a3.3 3.3 0 01-.9-1.3 1 1 0 010-.7c.1-.4.4-.6.9-.6.2 0 .2 1 .2.6v-.2l-.2-1 .1-2.1c.1-.7.3-1.3.6-1.6l.3-.3h.4c.5 0 .7.4.9.8l.1.3.2.1c.1-.3.5-.6 1.2-1l.6-.5.4-.3c1.2-.5 1.3-.1 1.3 1l.1 1.1.9-.2 1.1-.2v1.3c3.6 1 4.8 5 5.7 8 0 .4.2.8.3 1.1l.4 1.4.7-.2-.8 1.5-.3.4c-.3.4-.6.6-1.1.7l-1 .2zm-28.4-1.3c-.3.4-1 .6-1.6.5l-2-.4c-.2 0 0-.3-.3-.4-.5 0-1.6 0-2-.3-1.2-.7-1.7-2-2.1-3.1l-.1-.4-.3-.1c-1-.6-.3-.5-.4-1.5-.2-1.5.4-1.7 1.3-.8l.3-.5.1-.5c-.2-.7.3-1.5 1.2-1.7h.3c.7 0 1.2.2 2 .1.1-.7.7-.6.2-1.5-.3-.5 0-1.9 1.1-1.7.8 0 .8-1.2 2-1.6 3.3-1 3.8-.5 6.8.8 2.4 1 3.8 2.3 4.4 4.5h.6c.7.2 1.3 0 2 .2h.2c1 .3 1.3 1.1 1 1.8v.5l.3.5c1-.7 1.6-.4 1.3 1-.3 1 .5 1-.7 1.4l-.2.1-.2.4-.5 1c.5.3.9.6 1.4.6.4 0 1-.3 1-.7 0-.4-.3-.7-.3-1 0-.5.5-.8 1-.9l-.4-1a5 5 0 01-.1-2l.1-.8c-.5 0-1.2-1.2-1-1.2 1.7 0 1-.1 1-1.5-.1-.7 0-2.7.4-3.1l.4.8c.2.2 1.2 1.2 1.3 1 .3-.8-.2-1 1.2-1.8 1-.6 1-1 1-.4.2 3-.3 2.1 2 1.7l-.2 1c4.4.3 5.3 5.7 6.3 8.6.2.9.5 1.8 0 2.3-.1.4-.8.5-1.8.5a3 3 0 01-.5.5c-.8.6-1.7.8-2.6.8a6 6 0 01-2.4-.5c-.6-.3-1-.6-1.2-1.2v-.3c-.7-.1-1.2-.3-1.7-.6-.2.6-.6 1-1.1 1.4-.8.5-1.7.7-2.6.7a6 6 0 01-2.4-.7l-.7-.4c-.5.2-1.6.1-2.1.1-.3 0-.1.3-.4.3-.5.1-1.4 0-2 .2l-.8-.1-.7.2a6 6 0 01-2.4.3c-1-.1-1.8-.4-2.5-1a3 3 0 01-.7-1.1c0 .6-.7.9-1.2 1zm5.1-1.2l-.2-.1a6.7 6.7 0 01-1-1l-.2.2c0 .5.4.9.9 1l.5-.1zm11-1l-.2.1.2.1v-.3zm0 .3zm6-11.3z" clip-rule="evenodd"/>
    <path fill="#5B750E" fill-rule="evenodd" d="M85 60.6c-.5 1-1.5-1-1.4-1 1.8.2 1.1 0 1-1.4 0-.7 0-2.7.5-3.1l.4.8c.2.2 1.2 1.2 1.3 1 .3-.8-.2-1 1.2-1.8 1-.6 1-1 1-.4.2 3-.3 2.1 2 1.7-.1 1.6-.7 1.4-2 2.5a13 13 0 01-3.1 1.8c-.2 0-.8-.3-.9-.1z" clip-rule="evenodd"/>
    <path fill="#E52215" fill-rule="evenodd" d="M88.1 57.6c6.7-1.8 7.9 5 9 8.4.4 1.4.9 2.9-1.6 2.7-1.7 0-8.4-1-9.9-3.1a6 6 0 01-1-3.8 4.6 4.6 0 013.5-4.2z" clip-rule="evenodd"/>
    <path fill="#BD1F15" fill-rule="evenodd" d="M88.1 57.6h.4c-2 1.2-2.6 3.4-2.3 5.5.5 3.8 6.9 5.4 10.6 5.2h.4c-.9 1.5-9.7-1-10.8-2a5.4 5.4 0 01-1.8-4.3c0-1.8 1.2-3.7 3.5-4.4z" clip-rule="evenodd"/>
    <path fill="#fff" fill-rule="evenodd" d="M96.2 67.8c-.5 0-.8-.4-.3-.2l.3.2zM96.2 66.4c-.4 0-.6-.5-.4-.4l.4.4zM95.1 66.8c-.4 0-.7-.4-.2-.2l.2.2zM94.5 67.8c-.4.2-.8-.1-.3-.1h.3zM96.2 65.2c-.3-.2-.3-.7-.2-.5.2.1.2.5.2.5zM97.2 67.7c-.4-.2-.4-.7-.2-.5l.2.5zM94.6 65.5c-.5 0-.7-.5-.2-.3l.2.3zM94.9 64.3c-.5-.2-.5-.8-.2-.4l.2.4zM95.7 63.5c-.4-.3-.3-.7-.1-.6v.6zM87.7 62.5c-.3-.2-.2-.7-.1-.5l.1.5zM93.6 66.8c-.4 0-.8-.3-.3-.2l.3.2zM93 67.6c-.4.2-.9-.1-.4-.1h.4zM91.8 66.6c-.4.1-.8-.3-.3-.2l.3.2zM93 65.4c-.4 0-.7-.4-.2-.2l.3.2zM93.5 64c-.5 0-.7-.5-.3-.2l.3.3zM94.2 62.8c-.4-.2-.4-.7-.1-.3l.1.3zM95 61.6c-.3-.3-.2-.7 0-.5v.5zM91.2 65.1c-.5 0-.7-.5-.2-.2l.2.2zM90.5 67c-.4.1-.9-.3-.3-.2l.3.2zM89.8 65.5c-.4.2-.8-.3-.3-.2l.3.2zM91.5 63.7c-.5 0-.7-.5-.3-.3l.3.3zM92.3 62.1c-.4-.2-.4-.7 0-.3v.3zM93.5 60.7c-.4-.2-.4-.8-.1-.3l.1.3zM91.9 60.4c-.5-.2-.5-.8-.2-.4l.2.4zM90.6 62c-.4-.2-.4-.7 0-.3v.3zM89.9 63.7c-.5 0-.7-.6-.3-.3l.3.3zM92.7 58.7c-.4 0-.6-.3-.4-.3.2 0 .4.3.4.3zM94.4 60c-.4-.1-.4-.7 0-.3v.3zM90.1 60.3c-.4-.2-.4-.8 0-.4v.4zM89 61.7c-.4-.2-.3-.8 0-.4v.4zM88.3 64.2c-.5 0-.6-.7-.2-.3l.2.3zM88 60c-.4-.3-.3-.9 0-.4v.3zM86.6 61.6c-.2-.4 0-.8 0-.6v.6zM90.5 58.6c-.5 0-.7-.6-.3-.3l.3.3zM88.4 65.9c-.4-.1-.6-.7-.2-.3l.2.3zM86.9 63.8c-.4-.2-.5-.8-.1-.3v.3zM88.8 58.6c-.4 0-.7-.5-.2-.3l.2.3z" clip-rule="evenodd"/>
    <path fill="#CD8520" fill-rule="evenodd" d="M63.9 57.8c-.3-.5 0-1.9 1.1-1.7.8 0 .8-1.2 2-1.6 3.3-1 3.8-.5 6.8.8 3.2 1.3 4.7 3.4 4.7 7.1 0 2.3-1.5 2.7-3.5 3-1 .3-1.6.1-2.7.4-1.7.5-5.9-1.3-7-3-.5-1-1-1.1-1.4-2.5-.5-1.9.6-1.3 0-2.5z" clip-rule="evenodd"/>
    <path fill="#82430C" fill-rule="evenodd" d="M70.5 66.1c-1.3-1-1.8-2.7-3.2-3-.6 0-1.7-1.6-2.2-1.7-.8-.2-1.4-.7-2-1.1-.5-.3-1.8-.8-2.5-.4-.3.2-.3 1.1-.5 1.5-.2.5-.7 1-1 1.5-.1.6 0 1.2.2 1.8.4 1.2 1 2.4 2 3 .5.4 1.6.3 2.1.4.3 0 0 .3.4.4l1.9.4c.7.2 1.5-.2 1.7-.8 0-.2 0-.5.3-.7.4-.3 1.2.2 1.6-.1.4-.2 1.6-1 1.2-1.2z" clip-rule="evenodd"/>
    <path fill="#82430C" fill-rule="evenodd" d="M68.1 67.3c-.8 0-1.5-.1-2.2-.3l-2-1.2c-1.1-.7-2.3-1.3-3.2-2.1-.5-.5-.8-1-1-1.5l.4-.8c.2-.4.2-1.3.5-1.5.7-.4 2 .1 2.5.4.6.4 1.2.9 2 1 .5.2 1.6 1.8 2.2 1.9 1.4.2 1.9 2 3.2 3 .4.1-.8.9-1.2 1-.1.2-.3.2-.6.2-.1-.1-.3-.2-.6-.1z" clip-rule="evenodd"/>
    <path fill="#A3550B" fill-rule="evenodd" d="M67.1 68.4c-.6 0-1.3 0-1.8-.5-.3-.4-.5-.8-1-1-1.2.1-1.4 1.1-2.1-.2-.8-1.2-1-.5-2-1-.5-.3 0-.8-1.3-1.5-1-.6-.3-.5-.4-1.5-.2-1.6.6-1.7 1.6-.6.6.7 1 1.4 2 .7.6-.4 1.1-.3 1.5-.6.2-.2.4-.7-.3-.5-1 .1-1.7.5-2.6-.2-1-.7-.6-2 .7-2.3h.3c.7 0 1.2.2 2 .1 2.2 0 1.2 1.5 2.6 1.7.8.1 1.6.1 1.2 1.1-.3.6-.2.8.6.8h.8c.7 0 1.2.7.6 1.2-.7.7.8.9 1.2 1.4.5 1-1.1 2-2.4.2-1.5-2-2.7 0-1.4.4h.3c.7.1 1.4.3 1.3 1.2 0 .7-.8 1-1.4 1.1z" clip-rule="evenodd"/>
    <path fill="#DDA642" fill-rule="evenodd" d="M66.4 65.2a4.4 4.4 0 01-4.6-2.8l2.5.7c.8.3 1.6.8 2.2 1.5.1.2.3.5 0 .6h-.1z" clip-rule="evenodd"/>
    <path fill="#82430C" fill-rule="evenodd" d="M65 56.9a.3.3 0 00-.5.3c.5 1 2.5 2.1 4.6 3.2 2.7 1.2 5.6 2.2 7 2.3a.3.3 0 000-.6 24.8 24.8 0 01-11-5.2z" clip-rule="evenodd"/>
    <path fill="#82430C" fill-rule="evenodd" d="M71.2 65.8c1.5-.8 2.1-2.5 3.6-2.6.5 0 1.8-1.4 2.4-1.5.7-.1 1.4-.5 2-.8.6-.3 1.9-.6 2.6 0 .3.2.2 1 .3 1.4.2.6.6 1.1.7 1.7.2.5 0 1.2-.3 1.7-.6 1.1-1.2 2.3-2.4 2.8-.5.2-1.6.1-2.1.1-.3 0-.1.3-.4.3-.5.1-1.4 0-2 .2-.7.1-1.4-.3-1.5-1-.1-.2 0-.5-.3-.7-.3-.4-1.2 0-1.6-.3-.3-.3-1.4-1.2-1-1.3z" clip-rule="evenodd"/>
    <path fill="#82430C" fill-rule="evenodd" d="M73.5 67.2h2.2l2.2-1c1.1-.5 2.3-1 3.3-1.7.6-.4 1-.9 1.3-1.3l-.4-.9c-.1-.3 0-1.2-.3-1.5-.7-.5-2-.2-2.5 0-.7.4-1.4.8-2.1.9-.6 0-1.9 1.5-2.4 1.5-1.5 0-2.1 1.8-3.6 2.6-.4.1.7 1 1 1.3l.6.1h.7z" clip-rule="evenodd"/>
    <path fill="#A3550B" fill-rule="evenodd" d="M74.3 68.5c.6.1 1.4 0 1.9-.4.3-.3.5-.7 1-.7 1.2.2 1.3 1.2 2.2 0 1-1.2 1-.5 2-.8.6-.3.2-.8 1.5-1.4 1.2-.5.4-.4.7-1.4.4-1.5-.4-1.8-1.5-.8-.7.6-1.2 1.3-2 .5-.7-.5-1.2-.4-1.5-.7-.3-.3-.3-.8.3-.6 1 .3 1.6.7 2.6.2 1-.6.8-2-.5-2.4h-.2c-.7-.1-1.3 0-2-.2-2.2-.3-1.4 1.3-2.8 1.4-.8 0-1.6 0-1.3 1 .2.6.1.8-.7.7l-.8-.1c-.7 0-1.3.5-.8 1 .7.8-.9.8-1.3 1.3-.6 1 .9 2.2 2.3.6 1.8-1.9 2.8.2 1.4.5h-.3c-.7 0-1.4 0-1.5 1 0 .7.7 1 1.3 1.3z" clip-rule="evenodd"/>
    <path fill="#DDA642" fill-rule="evenodd" d="M75.4 65.4c1 .2 2 0 2.9-.3.9-.4 1.6-1.1 2-2l-2.6.4c-.8.3-1.7.6-2.3 1.2-.2.2-.4.5-.2.6h.2z" clip-rule="evenodd"/>
    <path fill="#A3550B" fill-rule="evenodd" d="M72.8 60.4c-1.6-.5-5.4-2.4-6.8-3.6-.3-.2-.9-.7 0-.3 1.2.7 2.1 1.4 3.5 2 1.9 1 3.9 1.8 6 2.4 0 0 1.1.3.6.6 0-.1-2.5-1-2.9-1l-.4-.1zM65.6 59.2l2.7 1.6c.8.5 2.5.9 3.3 1.4-.2.2-2.3-.6-2.5-.7-.5-.2-2.7-1.3-3-1.6-.2-.2-1.8-1.3-1.5-1.6l1 1zM66.3 55.9c.1-.3.9-1 1.2-1 0-.1 2.3-.3 2 0-.3.3-1 0-1.5.3-.3.1-.2 0-.5.3-.2.1-.5 0-.9.3 0 0-.3.2-.3 0zM73.7 55.5c1 .5 2.3 1 2.5 2.2 0 .4-.2-.3-.6-.6-.4-.5-1.2-.7-1.5-1-.8-.6-2.2-.3-3-.8-.1 0-.9-.1-.3-.5l3 .7zM74.6 57.5c1.2.6 2 1.3 2.2 2.8 0 .3-.1.6-.1.2 0-1-1-2-1.8-2.5-1.3-.8-2.6-1.6-.3-.5zM72.8 58.3c-.5-.2-3.2-1.9-4-2-.2 0-1.1 0-.3.2 1.9.5 2.2.5 3.7 1.2l.9.6h-.3zM73.3 64c-2-.7-1.8-.6-3.3-1.4-.5-.2.5.6.6.7 1.4.8 1 .7 2.4 1 .5.2.5-.3.3-.4zM85.6 64.7c-.6 4.5 7.4 4.2 6.6 1.4-.4-1.1-1.4-.8-2.3-.5-.6.3-1.8.4-1.8-.5 0-.6.8-1.5-.3-2-1-.3-2 .6-2.2 1.6z" clip-rule="evenodd"/>
    <path fill="#DDA642" fill-rule="evenodd" d="M88 66.3c-.4-.5 0-.6-.7-.7-.8-.2-.4-1.3.3-1.4.4 0-1.2 1 0 1.1.7.1.1 1.8 3.1.8.2 0 .6-.3.7-.1-1 .5-2.5 1.2-3.4.3zM87 64c-1.2 1.2-.3 1.8 1 2.5.8.5 2.3.5 3.2-.2 0 0 .8-.8.5-.2-.3.7-1.4 1-2.1 1-1.3 0-3.3-.5-3.4-2-.1-1.3 2-2 1.1-1.3l-.2.2z" clip-rule="evenodd"/>
    <path fill="#DDA642" fill-rule="evenodd" d="M94 65.2c1 0 1.7.8 1.9 1.7 0 1-.4 1.9-1.1 2.4-.8.6-1.7.8-2.6.8a6 6 0 01-2.4-.5c-.6-.3-1-.6-1.2-1.2-.2-.7.3-1.5 1-1.5.5 0 1 .2 1.4.4.4.3.8.5 1.3.5.4 0 1-.3 1-.8 0-.3-.3-.6-.4-.9 0-.5.6-.9 1.1-1z" clip-rule="evenodd"/>
    <path fill="#A3550B" fill-rule="evenodd" d="M94.6 68.3c.8-.7.7-1.4 0-2.2-.4-.4-1.3-.5-.5 0 .7.5 1.3 1.4.2 2-1.4.9-3.8 1.1-5-.4-.5-.7-.1 1.5 3.1 1.5.8 0 1.6-.4 2.2-.9z" clip-rule="evenodd"/>
    <path fill="#A3550B" fill-rule="evenodd" d="M94 67.5c.4-.5 0-1.4 0-.7-.4 2.3-4.2.8-4.3.8.5.6 2.1 1 2.9.8.5-.1 1.1-.4 1.4-.9z" clip-rule="evenodd"/>
    <path fill="#DDA642" fill-rule="evenodd" d="M85.2 64.7c1 0 1.7 1 1.8 1.9 0 .9-.4 1.8-1.2 2.3-.8.5-1.7.7-2.6.7a6 6 0 01-2.4-.7c-.5-.3-1-.6-1.2-1.2-.1-.7.5-1.5 1.2-1.5.5 0 1 .3 1.3.5.4.3.8.6 1.3.6.4 0 1-.3 1-.7 0-.4-.3-.7-.3-1 0-.5.6-.9 1.1-.9z" clip-rule="evenodd"/>
    <path fill="#A3550B" fill-rule="evenodd" d="M85.6 68c1-.7.8-1.5.2-2.3-.4-.5-1.2-.5-.6-.1.7.5 1.4 1.8 0 2.2-1.4.4-2 .8-3.5.2-.6-.2-1-.6-1.3-1.1-.2-.3-.4.4.6 1 .9.7 2.6 1 3.6.6l1-.5z" clip-rule="evenodd"/>
    <path fill="#A3550B" fill-rule="evenodd" d="M85.2 67.1c.5-.6-.1-1.3-.1-1 0 .7-.2 1-.8 1.3-1.5.7-3.4-.6-3.5-.5.2.5 1.8 1 2.4 1 .8 0 1.4-.3 2-.8z" clip-rule="evenodd"/>
    <path fill="#DDA642" fill-rule="evenodd" d="M70.5 64.4c-1-.1-1.9.6-2 1.5-.3.9 0 1.9.7 2.5.7.7 1.6 1 2.5 1a6 6 0 002.4-.2c.6-.1 1.2-.4 1.4-1 .3-.6-.2-1.5-1-1.6-.4-.1-.8 0-1.3.3-.4.2-.8.4-1.3.3-.5 0-1-.4-.9-.9 0-.3.4-.5.4-.9.1-.5-.4-1-1-1z" clip-rule="evenodd"/>
    <path fill="#A3550B" fill-rule="evenodd" d="M69.5 67.5c-.7-.9-.5-1.5.3-2.2.4-.4 1.3-.4.5 0-.7.4-1.5 1.3-.5 2 1.3 1 3.6 1.5 5 .1.6-.6 0 1.6-3.2 1.1-.8 0-1.5-.5-2-1z" clip-rule="evenodd"/>
    <path fill="#A3550B" fill-rule="evenodd" d="M70.1 66.7c-.2-.6.2-1.4.2-.7.1 2.3 4 1.3 4.1 1.3-.5.5-2.2.7-2.9.4-.5-.1-1-.5-1.4-1z" clip-rule="evenodd"/>
    <path fill="#4C6111" fill-rule="evenodd" d="M86.2 44.5c1.6-.8 4.6-1.3 6.4-1 .5 0 .9.3 1 .3-1 .6-2.7 1.5-2.6 1 0-1-4.1.6-5 .7l.2-1z" clip-rule="evenodd"/>
</svg>
