<svg xmlns="http://www.w3.org/2000/svg" width="126" height="84" fill="none">
  <path fill="#67235D" fill-rule="evenodd" d="M75.3 34.1c2.5-.6 5.5.2 9 .5.1 1.5 1.8 0 3.6 1.4.4.3-.7.8-.7.8-.2.1-.7.9-.5 1.3-1.9 0-4 0-4 4.2 0 2 .9 4.7 2 7.1-3.5.5-7 .8-9.9.6-1 0-1.7-.2-2.4-.5 6.5-3.6 6.5-12.3 3-15.4zm15.2.3c2.7-.5 5.5-1.6 8.6-3.8l3.2-2.4.4.1c2 .3 2.3-.7 2.5.8 0 .6 1.1 0 1.9.2.3 0 .4 1.5.5 1.9 0 .4 1-.6 1.8-.6.2 0 .6.6.9 1.3-1 3.9-4 7.9-7.4 10.9-.3-1.6-.8-3.1-1.5-4.5-1.6-3.3-5.3-5.9-7.1-3.2-.4-1.2-3 0-3.5-.5l-.3-.2z" clip-rule="evenodd"/>
  <path fill="#5B750E" fill-rule="evenodd" d="M110.5 31.1c-.2-.4-.6-1.4-1-1.4-.6 0-1.4.8-1.5.4 0-.3-.1-1.5-.4-1.5-.6-.1-2 .5-2 0-.2-1.3-.3-.6-1.9-.8-.6-.1-1 0 0-.8l2.7-1.6c.2-.2 1.2-.4 2-.5 0 0 0-.2.2-.2 1.4-1.4.9-1.4 1.6-3 .6-1.1 1-1.8 1.4-.3.2.6-1 3.9-1.3 4.5v.7c.3 1.5.5 3 .2 4.5z" clip-rule="evenodd"/>
  <path fill="#FFEA00" fill-rule="evenodd" d="M102.6 45.8c-.3-2.5-.8-5-1.9-7.1-1.5-3-4.4-5.3-6.1-2.8-2 2.8-3 0-5 2.3-1.2 1.5-6-1.7-6 4 0 2.1.9 4.7 2 7 6.4-.7 12.2-1.8 17-3.4z" clip-rule="evenodd"/>
  <path fill="#5B750E" fill-rule="evenodd" d="M88 36.9c-.2.1-1.5 1-.5 1 1 .2 1.4 0 2-.7.7-.6 1.6-.7 2.5-.8.5-.1 1.8-.5 1.6-1.2-.2-.7-2.5.4-3 0-.6-.5-.5-.7-1.5-1.2-1-.7-1.7-1.4-3.3-1.4-1 0-.8.1-.9 1.5 0 1.5 2.3-.5 3.8 1.7.2.4-.7 1-.7 1z" clip-rule="evenodd"/>
  <path fill="#FFEA00" fill-rule="evenodd" d="M39.3 12.2h-.1c-.4 1-.2 3.2.3 5.8l1-.6c-.6-2.1-1.1-4-1.2-5.2zM45 36l.6.8 2.6-1.3-1.5-3.2-2.6 1.3.9 2.4zm.9 1.2l1.3 1.9c-.5.7-1 1.1-1.1 1.6l1.4-1 1.1 1.8c0-1.4.2-2.8.4-4l-.6-1.4-2.5 1.1zm3.3-.6c0-.4.2-.7.3-1l-.6.2.3.8zm.5-1.7a7 7 0 011.2-2.3l-.9-1.7c-.9.3-1.9.7-2.8 1.2l1.4 3.2 1-.4zm1.6-2.8c.6-.7 1.2-1.3 1.8-1.7l-.2-.5-2.3.8.7 1.4zm2.3-2l.7-.5-.1-.2-.8.3.2.4zm.3-1.1l-1.2-2.3-.8.3 1.2 2.2.8-.2zm-1.5-2.7l-1.6-2.7c-.3 0-.5.2-.8.3l1.6 2.6.8-.2zM50.5 23L49.1 21l-.8.2 1.4 2.3.8-.3zm-1.8-2.7a63 63 0 00-1.4-2c-.2 0-.5 0-.8.2l1.5 2 .7-.2zM47 18L45.5 16l-.6.2.8 1.1.5.7.8-.2zm-1.8-2.3a12.7 12.7 0 00-3.7-3c1 .7 2 1.9 3 3.2l.7-.2zm4.6 14.8L48.6 28 46 29.3l1 2.3 2.9-1.2zm-1.4-2.7L46.9 25l-2.4 1 1.2 2.8 2.7-1.1zm-1.7-3.2l-1.3-2.3-2.1.9 1 2.4 2.4-1zM45 21.7L44 19.5l-1.7.7.9 2.4 2-1zm0-1.3l.5 1 1.8-.6-1.4-2-1.6.5.6 1zm.8 1.6l1.3 2.3 2-.7-1.5-2.3-1.8.7zm1.5 2.8l1.5 2.7 2.2-.8-1.6-2.7-2 .8zm1.7 3.1l1.2 2.3 2.3-.8a86 86 0 00-1.2-2.2l-2.3.7zM43.7 19l-1.1-1.9-1.3.6.7 2a36 36 0 011.7-.7zm-1.4-2.4a78 78 0 00-2.4-3.9c.2 1.2.6 2.7 1.2 4.5l1.2-.6zm-2-4.4l2.5 4.2L44 16a16.8 16.8 0 00-3.8-3.8zM43 17l1 2 1.6-.6-.4-.6a62 62 0 00-1-1.2l-1.2.4zm-2.8 4.7l.6 2.1 1.7-1-.9-2.2-1.5.8.1.3zm.7 2.7l.8 2.5 2-1-1-2.5-1.8 1zm1 3c.2 1 .6 2 .9 2.9l2.3-1.2-1.2-2.8-2 1.1zm1 3.4l.9 2.4 2.6-1.3-1-2.3-2.5 1.2zm-3.4-12.2l.5 2.2 1.4-.7-.7-2.1-1.2.6z" clip-rule="evenodd"/>
  <path fill="#E52215" fill-rule="evenodd" d="M50.8 34c2.1-3.6 5.4-5.2 9-4.5l1.9.6-2 1c-.5.1.5.4 1 1.2.6 1 3.3 2.3 4.7 1.7 1-.4 1.9 3.3 4 3.1.1-.4.2-1.8.9-2.9H74.4c3.9 3.1 3.8 12.7-4.4 15.6-2.9 1-10.2 1.2-15 .2a7.5 7.5 0 003.4-2.3c2.2-2.8-1.7-8-2.7-11.6l-2 2.9c-1 1.4-1.8 1.6-2.4 2.6-.6 1.2-.5 1.4-.6 2.2l-.6-.2-.8-1.3c0-3.3.6-6.8 1.5-8.3zm24.4 9.5c.3-.5.8-1.7.3-2-1.7-1.1-1.8 4.3-.3 2zm-1-8.2c-.3 0-1.7 0-1.8.4-.1 1 .5 1.8 1 2.8.2.6 1.8 3.6 2.3 1.4.4-1.4-.3-4-1.5-4.6z" clip-rule="evenodd"/>
  <path fill="#F59600" fill-rule="evenodd" d="M49.1 43.4l-2-3-2.8 2.7a19.1 19.1 0 012.1-3.6l-4-5.9a22.3 22.3 0 01-5.2 4c.7-.6 2-2.8 3-3.7l1.4-1.3c-2.2-2.9-4.4-5.5-6.4-7.2a62 62 0 01-5.2 5.8c.2-.4 1-2.2 2-3.3 1-1.1 2.4-2 3-2.6l-.6-.5a13 13 0 00-8-1.8c-.2 5.8-2.5 4.5-4.8 2.8a7.7 7.7 0 00.8 9.2h.2c.9-.4 4-2.8 4-3.5 0 .8-2.2 2.9-3.6 4.2 1 1.4 2.6 3.1 4.2 4.8 1.4-.6 4.4-3.6 5.9-5 0 1.2-3 3.9-5 5.9a67 67 0 004.2 4l2.5-1.7c0 .5-.6 1.4-1.6 2.5a13 13 0 004 2.4c.8.2 6 .9 10.3 1.2-1-1.1-3-3.3-3-5.8 1.6.4 3-.6 4.6-.6zM27.2 23.8v1.5c.9-.4 2.7-.7 3.6-.7.3 0 1.5.1 2.9.7-1.1-.8-3-1.8-6.5-1.5z" clip-rule="evenodd"/>
  <path fill="#5B750E" fill-rule="evenodd" d="M25.6 19.6c0-1.8-1.1-10-2.6-10.5-.9-.2-3.7-.6-3.3.4.1.2 1.1 4.4.7 3.7-.7-1.2-1.8-1-2.7-4-.2-.8-2.5-3.2-2.8-1.4-.4 2-2.3 1.3-1.4 3 .2.3-3.2-1-2 .8 1.2 2-4 1.4-1.3 2.5 1.8.7 2.3 2.5 2.2 4.2 0 2.6 3.5 2 3.4 2-.7 0-1 2.2 2.4 2.5 2.7.3 8.2 8.9 7.4-3.2zM74.3 33.6c-3-4.9-5-.3-4.4-5.2.2-1.3.7-2.7-1.2-2.7-.3 0-.9 4.1-1.5 4-1-.4-.5-.8-2.4-.8-.1 0-3.5 0-3 .6 1 1.2 1.6.6-.6 1.5-.4.1 0 .3.3 1 .6.8 3 1.3 4.2.8.9-.4 1.6 3.3 3.4 3.2.1-.4.2-2.1.8-3l3 .6 1.5.1z" clip-rule="evenodd"/>
  <path fill="#FFCE00" fill-rule="evenodd" d="M102 46a20 20 0 00-1.8-6.6c-1.4-2.8-3.8-5.1-5.3-2.8-.5.6-1 1-1.4 1.2 2.1 1.5 3.5 5.8 3.3 9.6 2-.5 3.4-.8 5.1-1.4zm-13-6.7c-1.8.2-4.7-1-4.7 3.4 0 2 .9 4.3 2 6.5l5.5-.8a19.7 19.7 0 01-3-7.1c-.1-.8 0-1.4.1-2zM39.4 12.2c-1 .2-1.2 2.3-.9 5.3 1.3-2 3.5-2.6 5.7-3-1.8-1.7-3.4-2.7-4.8-2.3z" clip-rule="evenodd"/>
  <path fill="#FFCE00" fill-rule="evenodd" d="M39.1 21.9l.6 2.6.7-.5-.6-2.2v-.3l-.7.4zm-.7-7.7c0 1.1 0 2.6.2 4.3l.4-.2-.6-4zm.3 4.9l.3 2.2.6-.3-.5-2.2-.4.3zm3 12.5l1.5 2 .2-.2-.8-2.4-1 .6zm-2-6.6l.7 2.7.9-.6-.8-2.6-.7.5zm.8 3.2l.8 3 1-.7-.8-2.9-1 .6z" clip-rule="evenodd"/>
  <path fill="#F07A00" fill-rule="evenodd" d="M21.3 26.4a7.7 7.7 0 001.1 8.6h.2c.7-.3 2.8-1.8 3.7-2.8l-.4-.5c-1.4-2-3.7-4-4.4-4.9l-.2-.4zm5 5.9c-.6 1-2.2 2.4-3.3 3.4 1 1.4 2.6 3.1 4.2 4.8.9-.3 2.3-1.7 3.7-3l-4.6-5.2zm5 5.8L28 41.4l4.3 4 2.5-1.7c0 .5-.6 1.4-1.6 2.5a13 13 0 004 2.4l4 .6c-4-4-6.6-6.5-9.9-11z" clip-rule="evenodd"/>
  <path fill="#BD1F15" fill-rule="evenodd" d="M50.8 34c2.1-3.6 5.4-5.2 9-4.5l1.9.6-2 1c-.3 0 0 .2.3.5-3 .7-5 3.6-6 7l-.3.4c-1 1.4-1.8 1.6-2.4 2.6-.6 1.2-.5 1.4-.6 2.2l-.6-.2-.8-1.3c0-3.3.6-6.8 1.5-8.3z" clip-rule="evenodd"/>
  <path fill="#67235D" fill-rule="evenodd" d="M54 49.5c7.8-2.8 3.2-6.1 1.6-12.6-.1 0-1.4 2.2-2 2.7a7.8 7.8 0 00-2.6 5l-.6-.3c-2-1-3.4.5-5.5 0 0 .4 4.6 9.3 8.5 5.5-.9-.3-4.2-3-5.5-3.6 2 0 4.6 2.6 5.8 3.3v-1c.1-2.2.9-6.4 1.6-7l.2 1.6c0 3.1-.5 2.6-1.5 6.4z" clip-rule="evenodd"/>
  <path fill="#5B750E" fill-rule="evenodd" d="M34.9 3.5c4.4 7 64 27.1 66 19.5.8-2.5-6-6.3-11-9-18-9.4-58.8-16.5-55-10.5z" clip-rule="evenodd"/>
  <path fill="#4C6111" fill-rule="evenodd" d="M34.9 3.5c4.4 7 64 27.1 66 19.5.1-.2.1-.5 0-.8-7.7 4.4-61-14-65.1-20.5-1 .3-1.5 1-1 1.8zM74.2 5.5s1.4-4.2 1-4.6c-.5-.6-2-1-2.6-.3-.8 1.2-1.7 4-2 4-1.6-.4-4.2-.5-6.8.5.7.6 1.3 1 2.6 1.3-.6.4-2.2 1.4-2.8 2.7 1.1.3 3.6 0 5.1-1 0 1.4.1 3 1 4 .4-.2.7-.2 2.3-2.6.7.9 2.6 2.8 3.7 2.6 0-.5.1-1.7-.4-2.8 0 0 1.3.4 4.2.3a15 15 0 00-5.3-4zM22.3 9c-1-.2-3-.3-2.6.5.1.2 1.1 4.4.7 3.7l1.5 4.7c.2 1.8-4-2.5-5.3-4l-2.8-4.5c-.4.3-.7.5-.3 1.4l3.5 5.8c1 1.6-8-3.5-7.5-3l1 .6c.6.3 1.1.9 1.4 1.5 4.3 5 5.1 3.3 7.5 4.5 1.1.6 2.7.8 5.2 5.1l.2.5c.4-.4.7-1 .8-2.3l-.2-.3a182 182 0 01-3-14.2z" clip-rule="evenodd"/>
  <path fill="#963685" fill-rule="evenodd" d="M83.4 46l.7 2a25 25 0 01-10 .3 10 10 0 002.1-2.5c2.2.5 4.6.4 7.2.1zm25-15c.3-.2.7-.4 1-.4l.3.2c0 .3 0 .5-.2.7a2 2 0 00-.4.7c-.7 2-2 4-3.2 5.7a48 48 0 01-3.3 3.7c-.2-1-.5-1.8-1-2.7.6-.6 2.2-1.6 3.7-3.2 1.5-1.7 2.8-3.9 3-4.7z" clip-rule="evenodd"/>
  <path fill="#ECECED" fill-rule="evenodd" d="M11 50c-.6-2.5-2.5-4.6-4-6.6-.4-.4-.7-1-1.2-1.3-1.6-.9-3.3-1.9-1.3-3.4 1-.7 1.7 1.4 2.9-.8.6-1.2 2.8.5 1.5 2.5-.8 1.2 6 7.7 5.2 8.7-1.1 1.3-3.2.6-3 .9z" clip-rule="evenodd"/>
  <path fill="#9B9D9F" fill-rule="evenodd" d="M11 50c-.6-2.5-2.5-4.6-4-6.6L5.6 42c-1.6-1-3-1.8-1-3.3.2-.1.4-.2.6-.1-1.2.1-1.5 2 0 2.6 2.2 1 6.4 7.3 6.4 8.7-.5 0-.6.2-.6 0zM6.9 39.9c-.5-.1-1.3-.5-.3-.6.6-.2.5-.6.9-.6.2 0 .2 1.4-.6 1.2z" clip-rule="evenodd"/>
  <path fill="#A3550B" fill-rule="evenodd" d="M13.8 67.1c-2.5-7.1-5-17.7-2.7-18 1-.2.7-2.2 1.6-.3 1.6-.4.9-3.2 2.3-2.3 1 .6 8.7.8 14.1 3.2.2 1.1.5 2.3.9 3.2-2-.5-3.9-.8-6.1-.3-2.9.7-2 6.2-.8 7.6 1.7 2 6.2 4.4 9.7 5.4l-9.4.3c-3.3.2-6.6.6-9.6 1.2z" clip-rule="evenodd"/>
  <path fill="#82430C" fill-rule="evenodd" d="M13.8 67.1c-2.5-7.1-5-17.7-2.7-18 1-.2.7-2.2 1.6-.3 1.3-.3 1-2.2 1.7-2.5-.3.4-.3 1 0 1.5-.4.3-1.2 1-1.2 1.5-.7-.3-1-.4-1.3.3-.4.8-.5 1.3-.3 2 .8 3.5 1.7 7.7 2.6 11l1.7 4.1-2 .4z" clip-rule="evenodd"/>
  <path fill="#868789" fill-rule="evenodd" d="M43 81.5a81.6 81.6 0 01-30.3.3C4 80 1 78.3.7 77.2c-.1-.6-.6-3 .6-3.3 2-.5 11 2.3 12.6 1.4 2.5-.4 14.6-1.6 23.6-2.3 1.8 3.1 3.8 6 6 8.4l-.6.1z" clip-rule="evenodd"/>
  <path fill="#9B9D9F" fill-rule="evenodd" d="M8 80C2 78.4.9 78 .7 77.1c-.1-.6-.6-3 .6-3.3 2-.5 11 2.3 12.6 1.4L24.8 74l.2 3.3 1.2 4.2a2 2 0 00-.2.5c-3.5 0-8-.4-11.5-.8l-4.2-.5C9 80.5 8 79.9 8 79.9z" clip-rule="evenodd"/>
  <path fill="#B1B3B4" fill-rule="evenodd" d="M.7 77.2c-.1-.6-.6-3 .6-3.3 1.4-.3 6.6 1 10 1.4-.7 1.3-.8 1-.8 2.8l.4 2.8c-1.8-.4-9.9-2-10.2-3.7z" clip-rule="evenodd"/>
  <path fill="#F07A00" fill-rule="evenodd" d="M38.2 74.2c-20.2 6-32.7 2.5-35.5-.3-.5-.6-.5-2-.3-2.3.3-.6 3.3-.7 4-1.1 4.5-2.6 11-3.1 17.4-3.8a76 76 0 0110.5-.3c1.1 2.8 2.4 5.4 3.9 7.8z" clip-rule="evenodd"/>
  <path fill="#F59600" fill-rule="evenodd" d="M41.2 78.6c-6.9 1.3-22.4 1-28.7-.2-13.5-2.6-13.3-4.2-10-4.8 1-.3 5.1.7 8.8.7 3 .1 11.3 0 11.2-1.1.3-.9-7.5-1.8-10-1.7-4.8.1-11 2.1-10 0 .2-.7 3.2-1.2 3.9-1.6 4.5-2.5 11-3.1 17.4-3.7a77.3 77.3 0 0110.3-.3c1.9 4.8 4.3 9 7 12.7z" clip-rule="evenodd"/>
  <path fill="#FAB341" fill-rule="evenodd" d="M27.1 73.2l.5.1c-.2.5-1.3 1-2.2 1.4l-1 .5-1.7.7c-1.2.4-2.4.8-3.4 2.1a4.5 4.5 0 01-.7.8l-.2.2c.1.1.4 0 .6-.3l.5-.5c1-1.3 2.1-1.7 3.3-2a10 10 0 001.7-.8l1-.5c1-.4 2.2-1 2.4-1.5l1.1.1c-.4.5-1.4 1.5-1.5 1.9-.4.8-1.4 2.1-2 3l-.5.7.3.2.4-.6 2-3.2 1.6-1.8v-.1a28.9 28.9 0 002.6 0l-.7 1-1.2 2-.2.4c-.4.6-.8 1.3-1 2l.2.1 1-2 .3-.5 1.2-1.9.7-1c.7 0 1.4-.1 1.8-.3a15.5 15.5 0 01-1.3 2.8l-1 1.6c-.3.5-.4 1-.4 1.2h.2l.4-1 1-1.7.7-1.3.7-1.6 1.2-.2-.2.8a20.4 20.4 0 01-1.4 4.8l.2.2a20.6 20.6 0 001.4-5l.2-.9 1.4-.2-.4 1.6a11.7 11.7 0 01-.3.9 10 10 0 000 2.1c0 .8 0 1.5.3 1.7l.2-.3c-.2 0-.3-.7-.3-1.4a9.6 9.6 0 01.2-2.2l.1-.8.5-1.6-.1-.3-1.4.2h-.1a5 5 0 00-.6-2l-.6-2.1-.4-1.8-.6-1-.2.1.5 1 .4 1.7c.1.8.4 1.5.7 2.2.3.7.6 1.4.5 2l-1.2.1c0-.3-.4-.8-.7-1.3l-.5-.8-.5-1-.8-1.6a8.7 8.7 0 00-1.5-2.4l-.1.3c.2.1.4.5.7 1l.7 1.2.7 1.6.5 1 .6 1c.3.3.6.8.6 1.1-.3.2-1 .2-1.8.3 0-1-1-2.3-2-3.7-1-1.1-1.8-2.3-2.2-3.3l-.2-.3h-.2v.2l.2.2c.3 1 1.2 2.2 2.1 3.4 1 1.3 2 2.6 2 3.5a25.5 25.5 0 01-2.4-.1c0-.5-.1-1-.4-1.4a7.9 7.9 0 00-1.6-2 16.5 16.5 0 01-3-3.3l-.3-.3-.2-.1v.3l.3.3a25.6 25.6 0 003 3.4c.5.4 1.1 1 1.6 1.8.2.4.4.9.3 1.3l-1-.1c-.2-1.5-1.2-1.6-2.4-1.8A6 6 0 0122 70c-.5-.4-.8-1-1-1.6a4 4 0 00-.6-1l-.7-.8h-.1l-.1.1.7.8.5 1c.2.7.6 1.3 1.1 1.7l1.7 1c.7.4 1.4.4 2.2.5 1 .1 2 .2 2 1.4l-.7-.2v.3zm11 .8l-.2 2c0 1.1.2 2.3.6 2.9l.2-.2a9 9 0 01-.4-4.3L38 74zm1.2 1.9c0 1 .2 2 .5 2.5l.2.3.2-.3-.1-.1c-.3-.4-.4-1.1-.5-2a49 49 0 01-.3-.4zM2.7 73.5H3a2 2 0 00-.4 1l.3 1.3h-.4l-.2-1.3c0-.3.2-.6.4-1zm1 0l.4.1-.3.5-.1 1.2.3 1h-.3v-.1c-.2-.1-.3-.5-.3-1l.1-1.2.2-.4zm1.3.2h.2v.3l-.2.4v1.4c0 .3.3.7.3.7l-.2.1c-.2 0-.3-.4-.4-.8v-1.4l.2-.5v-.2zm1.7.2H7v.1l-.1.1-.3 1.4c0 .5.4 1 .6 1.5H7l-.6-1.5c0-.4 0-1 .3-1.5zm1.7.2h.3l-.1.2a7 7 0 00-.3.7v1.4l.5 1h-.2c-.3 0-.4-.5-.5-1a6.7 6.7 0 010-1.5l.2-.7zm2.7.2H11.4a5.6 5.6 0 00-.7 1.5V77c0 .5.2.5.3.9H11c-.2 0-.3-.1-.4-.3v-1.9a5.6 5.6 0 01.6-1.4zm2.6 0h.4c-.5.5-.5.8-.7 1.3l-.1.4c-.3.7-.1 1.2 0 1.7l.2.7h-.3l-.1-.6c-.2-.5-.4-1 0-2v-.3l.6-1.1zm2.8 0h.4l-.2.2-.2.2a5 5 0 00-1.4 3.8h-.3c0-.7 0-1.4.3-2.1a5.2 5.2 0 011.4-2v-.1zm3.4-.3H20.5l-.7.4c-1 .7-1.5 2-1.9 3-.3.7-.6 1.3-.9 1.5l-.1-.2.8-1.5c.4-1 1-2.3 2-3l.2-.2zm1.1-1.6h-.3c-.1-.4-.5-1-1-1.5l-1-1.5-.3-.6c-.4-.6-.8-1.3-.8-1.9h.3c0 .5.4 1.2.7 1.8l.4.6 1 1.4c.5.7 1 1.3 1 1.7zm-3.5-.6H17l-.3-.7c-.7-1.2-1.2-2.2-1.4-3.8h.2c.2 1.5.8 2.5 1.4 3.7l.5.8zm-2.6-.2h-.5L14 71l-.2-.4a27.7 27.7 0 01-.7-3h.3l.2 1.5a27.3 27.3 0 00.6 1.7l.4.5.2.1.1.2zm-2.4-.1h-.3l-.3-.6-.7-2v-.1-.8h.2l.1.8a8.4 8.4 0 001 2.7zm-2.7.2h-.3l-.2-.6-.1-.6a4 4 0 01-.1-1.8h.1l.2-.1v1.8l.2.7.2.6zm-1.5.2H8a6.8 6.8 0 01-.5-1.2c-.1-.4 0-.6 0-.8v-.4h.3v1.1l.3.8.2.5zm-1.6.3h-.3a7 7 0 01-.3-2.1h.3c0 .8.1 1.6.3 2zm-1 .1h-.3l-.1-.4a3.8 3.8 0 010-1.6h.1l.2-.1V70.5c-.1.3-.2.8 0 1.3v.5zm-1 .1h-.4c0-.4 0-1.5.3-2h.1l.2.2c-.4.4-.3 1.4-.3 1.8zm-1.2 0a4 4 0 01-.3 0c0-.5.1-1 .6-1.7h.3c-.5.7-.6 1.3-.6 1.7zm.4 3.8zm0 0zm36.6 1.5zM26 70.5l-.3-.1-1.3-.4-1-.6-.8-1-.1-.4v-.2l.1-.1h.3l.7.1.5.3.6.5.4.4a7.6 7.6 0 011 1.5H26zm-.3.2h.5c.2 0 .2-.1.2-.3L26 70a8 8 0 00-.9-1.2l-.4-.4a6 6 0 00-.6-.5l-.6-.3a4 4 0 00-.8-.2h-.4l-.3.3v.4l.2.5c.2.4.5.8.9 1 .3.3.7.5 1 .6l1.4.5zm-.8 7c-.2 0-.2.2-.3.3-.3.2-.4.4-1.2.2V78v-.4c.2-.3.3-.6.5-.7a14.4 14.4 0 012.2-1.5h.2l-.4 1-1 1.3zm-.1.5l.2-.3 1.2-1.4.4-1.2c-.2-.2-.3-.2-.6-.1l-.6.3c-.7.3-1.5 1-1.7 1.1A2.4 2.4 0 0023 78c0 .2 0 .3.2.4h.1c1 .3 1.1.1 1.5-.2z" clip-rule="evenodd"/>
  <path fill="#ECECED" fill-rule="evenodd" d="M41.2 78.6c-6.9 1.3-22.4 1-28.7-.2C2 76.4-.2 74.9 1 74.1l.4.7c.2.2.8.7 1.4.9 2.5 1 7.6 1.8 8.7 2.1 2.8.8 8.5 1 11.4 1.2.9.2.7 0 1.2 0h.4c.3.1.6.2 1 0a13.6 13.6 0 014.5 0l1.2-.1.6-.1c.8.2 2 0 3.1 0 1.3.2 3.7 0 6-.6l.4.4zM5.9 70.3c-.9.5-1 .3-2 .4-.5.2-1.1.4-1.3.7-.3.4-.2.7-.2.7v-.7c.3-.6 3.3-1.2 4-1.6a39.5 39.5 0 0117-3.9l9.4-.3c.5 0 1 .2 1.3.3l.1.3a55 55 0 00-4.5.1c-1.8.1-6.1.1-8.9.3 0 0-4.8.5-8.3 1.4-1.3.3-2.7.6-4 1.2-.9.4-1.8.9-2.6 1.1zM26.1 72.6c.4.3 1.2.3 1.2.5 0 .1-.8-.2-1.2.7-.6 1-3.5 1.1-3.5-.6-.1-1.4 1.4-1.5 2.3-1.3.7.2.8.5 1.2.7z" clip-rule="evenodd"/>
  <path fill="#F07A00" fill-rule="evenodd" d="M24.3 72.6c-.6 0-1 .3-1 .5 0 .3.5.5 1 .5.6 0 1-.3 1-.5 0-.3-.4-.5-1-.5z" clip-rule="evenodd"/>
  <path fill="#5B750E" fill-rule="evenodd" d="M102.8 47c.3 1.9.3 4 0 6.3 2-1.1 5.3-1.6 7.6-1.4 2.7.2 1.9 4.4.6 5.8a24 24 0 01-11 5l-1.1 2.7-.9-.4-1.3-.5c-2.7-1.2-3.7-1.6-7.4-.4-1.1.3-1.6 1-2 1.6 0 .1.2.2 0 .2a2.3 2.3 0 00-2.3 1.2 3 3 0 00-.3 1.2c0 .4 0 .9.2 1.2l.1.2v.1h-.6a9 9 0 00-1.2-.1h-.4l-.6.1c-.6.3-1.1.7-1.5 1.2-.2.4-.4.8-.4 1.3a1.6 1.6 0 00-1.9 1c-.1.5-.2 1-.1 1.8v.4c-.4.9-.5 1.2 1 2v.3c.7 1.5 1.3 3 3 4.1l.4.2c-13.2 2.1-25 1.4-32 .2-7.5-8.1-12.2-25.4-13.3-32 17.4 2.9 48.7 2.2 65.4-3.4zm-.3 7.4l-.4 1.8c2-.5 6.3-2 6.4-2.6 0-1.4-5 .6-6 .8z" clip-rule="evenodd"/>
  <path fill="#4C6111" fill-rule="evenodd" d="M50.6 82.3c-2.7-.5-4.7-1-5.8-1.4-4-4.6-7.4-10.4-9.8-16.3-3.6-.8-8.8-3-10.6-5.2-1.2-1.3-2-5.5.7-5.7 1.9 0 4.4.4 6.4.8l-1.2-5.8c2 .7 4.4 1.2 7.1 1.6 1.1 6.6 5.8 23.9 13.2 32zm-18-24.4A76 76 0 0132 56c-.8-.2-5-1.9-5-.6 0 .5 3.4 1.8 5.5 2.5z" clip-rule="evenodd"/>
  <path fill="#5B750E" fill-rule="evenodd" d="M111.1 72.4c-.6 1.2-1.8-1-1.7-1 2.1 0 1.3-.2 1.2-1.9 0-.8 0-3.1.5-3.7l.5 1c.3.2 1.5 1.5 1.6 1.3.4-1.1-.2-1.3 1.4-2.3 1.2-.7 1.2-1.1 1.2-.4.3 3.7-.3 2.5 2.4 2-.1 2-.8 1.6-2.4 3-.4.4-3.2 2.2-3.7 2.1-.2 0-.9-.3-1 0z" clip-rule="evenodd"/>
  <path fill="#E52215" fill-rule="evenodd" d="M114.8 68.9c8-2.3 9.4 5.9 10.7 10 .5 1.7 1 3.4-1.9 3.2-2 0-10-1.2-11.8-3.8-.7-1-1.4-2.9-1.2-4.5.2-2 1.3-4.1 4.2-5z" clip-rule="evenodd"/>
  <path fill="#BD1F15" fill-rule="evenodd" d="M114.8 68.9l.5-.2c-2.5 1.5-3.2 4.2-2.8 6.7.6 4.6 8.3 6.5 12.7 6.3h.4c-1 1.7-11.5-1.2-12.8-2.4a6.4 6.4 0 01-2.3-5.2c0-2.2 1.5-4.5 4.3-5.2z" clip-rule="evenodd"/>
  <path fill="#fff" fill-rule="evenodd" d="M124.4 81c-.5.1-.9-.5-.3-.3l.3.3zM124.4 79.4c-.4-.1-.6-.6-.4-.5.2 0 .4.5.4.5zM123.2 79.8c-.6 0-1-.5-.3-.3l.3.3zM122.5 81c-.5.3-1-.1-.4-.1l.4.1zM124.5 78c-.4-.3-.4-.9-.2-.7l.2.6zM125.6 80.9c-.4-.2-.4-.8-.2-.6.2.1.2.6.2.6zM122.6 78.3c-.6 0-.9-.7-.3-.4l.3.4zM122.9 76.8c-.6-.2-.6-.9-.2-.4l.2.4zM123.8 75.8c-.4-.3-.3-.8-.1-.6l.1.6zM114.3 74.7c-.4-.3-.3-.8-.1-.6l.1.6zM121.4 79.8c-.6.1-1-.4-.4-.2l.4.2zM120.6 80.8c-.4.3-1-.2-.4-.2l.4.2zM119.2 79.5c-.5.2-1-.3-.4-.2l.4.2zM120.7 78.2c-.5 0-.9-.6-.3-.3l.3.3zM121.2 76.6c-.6 0-.8-.7-.3-.4l.3.4zM122.1 75c-.5-.1-.5-.8-.1-.3l.1.4zM123 73.6c-.3-.3-.2-.8 0-.6v.6zM118.5 77.8c-.6 0-.8-.6-.3-.3l.3.3zM117.6 80c-.5.2-1-.2-.4-.2l.4.2zM116.8 78.3c-.5.2-1-.4-.3-.2l.3.2zM118.8 76.1c-.5 0-.8-.6-.3-.3l.3.3zM119.8 74.2c-.5-.2-.5-.9-.1-.4l.1.4zM121.3 72.6c-.5-.3-.6-1-.2-.5l.2.5zM119.3 72.1c-.5-.2-.5-.9-.2-.4l.2.4zM117.8 74.1c-.5-.2-.5-1-.1-.4l.1.4zM116.9 76.1c-.6 0-.8-.7-.3-.3l.3.3zM120.3 70.2c-.4 0-.8-.4-.5-.4.2 0 .5.4.5.4zM122.3 71.7c-.5-.2-.5-.9-.1-.4l.1.4zM117.2 72c-.5-.2-.5-.9-.1-.4l.1.4zM115.9 73.7c-.5-.2-.4-1-.1-.4l.1.4zM115 76.7c-.5 0-.7-.8-.2-.4l.2.4zM114.7 71.6c-.5-.3-.4-1-.1-.4v.4zM113 73.6c-.3-.4 0-1 0-.7v.7zM117.6 70c-.5 0-.8-.6-.3-.3l.3.3zM115.2 78.7c-.6 0-.8-.8-.3-.3l.3.3zM113.3 76.3c-.5-.3-.5-1-.1-.5l.1.5zM115.7 70c-.6 0-.9-.6-.3-.3l.3.3z" clip-rule="evenodd"/>
  <path fill="#CD8520" fill-rule="evenodd" d="M85.8 69c-.2-.5 0-2.2 1.4-2 1 0 .9-1.4 2.4-2 3.9-1.2 4.5-.4 8 1 4 1.6 5.7 4.1 5.7 8.6 0 2.7-1.8 3.2-4.2 3.6-1.1.3-1.9.1-3.2.5-2 .5-7-1.6-8.3-3.6-.7-1.1-1.3-1.4-1.7-3-.6-2.3.7-1.6 0-3z" clip-rule="evenodd"/>
  <path fill="#82430C" fill-rule="evenodd" d="M93.8 79c-1.7-1.1-2.2-3.3-4-3.5-.6-.1-2-2-2.6-2.2-.8-.2-1.6-.8-2.3-1.3-.6-.3-2.1-1-3-.4-.4.3-.4 1.3-.6 1.7-.3.7-.9 1.3-1.1 2a3 3 0 00.1 2c.6 1.4 1.2 2.9 2.5 3.7.6.3 1.9.3 2.5.4.4 0 0 .4.4.4l2.3.5c.8.3 1.8-.2 2-.9.1-.3.1-.7.4-.9.5-.3 1.4.2 2 0 .3-.3 1.8-1.2 1.4-1.5z" clip-rule="evenodd"/>
  <path fill="#82430C" fill-rule="evenodd" d="M90.9 80.4c-1 0-1.8-.2-2.7-.4l-2.4-1.4c-1.3-.7-2.7-1.5-3.7-2.5-.6-.6-1-1.2-1.4-1.8.3-.3.5-.6.6-1 .2-.4.2-1.4.6-1.7.9-.5 2.4.1 3 .4.7.5 1.5 1.1 2.3 1.3.7.2 2 2 2.7 2.2 1.7.2 2.2 2.4 3.9 3.5.4.3-1 1.2-1.4 1.4l-.8.1-.7-.1z" clip-rule="evenodd"/>
  <path fill="#A3550B" fill-rule="evenodd" d="M89.7 81.8c-.7 0-1.6-.1-2.2-.7-.3-.4-.5-1-1-1-1.5 0-1.8 1.2-2.7-.4-1-1.5-1.1-.6-2.3-1.2-.7-.4-.1-1-1.6-1.8-1.3-.8-.4-.5-.6-1.8-.2-1.9.8-2 2-.7.7.8 1.2 1.7 2.3.9.8-.6 1.5-.4 1.8-.7.3-.3.5-.9-.3-.7-1 .2-2 .6-3-.2-1.2-.8-.8-2.5.8-2.7h.3l2.4.1c2.7 0 1.5 1.7 3.2 2 1 .1 1.9.1 1.4 1.3-.3.8-.3 1 .7 1h1c.7 0 1.4.7.7 1.4-.9.8 1 1 1.3 1.7.7 1.1-1.2 2.4-2.8.3-1.8-2.5-3.3-.1-1.6.4h.3c.8.1 1.7.3 1.6 1.4 0 .9-1 1.2-1.7 1.4z" clip-rule="evenodd"/>
  <path fill="#DDA642" fill-rule="evenodd" d="M88.8 78c-1.1 0-2.3-.2-3.4-.8-1-.6-1.7-1.6-2.1-2.6l3 .8c1 .4 2 1 2.7 1.8.1.2.3.5 0 .7h-.2z" clip-rule="evenodd"/>
  <path fill="#82430C" fill-rule="evenodd" d="M87.2 68a.4.4 0 00-.6.3c.6 1.2 3 2.6 5.5 3.8 3.1 1.5 6.7 2.7 8.3 2.8a.4.4 0 000-.7A29.6 29.6 0 0187.3 68z" clip-rule="evenodd"/>
  <path fill="#82430C" fill-rule="evenodd" d="M94.6 78.6c1.7-1 2.5-3 4.3-3 .6 0 2.2-1.8 2.8-1.9 1 0 1.7-.6 2.5-1 .6-.2 2.2-.7 3 0 .4.3.3 1.3.4 1.7.2.7.7 1.4.9 2a3 3 0 01-.4 2.1c-.7 1.3-1.4 2.7-2.9 3.4-.6.2-1.9 0-2.5 0-.4 0-.1.4-.5.5l-2.3.1c-.8.2-1.8-.3-2-1 0-.4 0-.7-.2-1-.4-.4-1.4 0-1.9-.3-.3-.3-1.7-1.4-1.2-1.6z" clip-rule="evenodd"/>
  <path fill="#82430C" fill-rule="evenodd" d="M97.3 80.3h2.7l2.6-1.1c1.3-.6 2.8-1.3 4-2.1l1.5-1.6-.5-1c-.1-.5 0-1.5-.4-1.8-.8-.7-2.4-.2-3 0-.8.4-1.6 1-2.5 1-.6.1-2.2 1.8-2.8 1.9-1.8 0-2.6 2-4.3 3-.5.2.9 1.3 1.2 1.6l.7.1h.8z" clip-rule="evenodd"/>
  <path fill="#A3550B" fill-rule="evenodd" d="M98.3 81.8c.7.2 1.6.1 2.2-.4.4-.3.7-.9 1.2-1 1.5.3 1.7 1.5 2.7 0 1.1-1.3 1.2-.4 2.4-.9.7-.2.3-1 1.8-1.5 1.4-.6.5-.5.8-1.7.4-2-.5-2.2-1.8-1-.9.8-1.4 1.6-2.5.6-.7-.7-1.4-.6-1.7-.9-.3-.3-.4-1 .4-.7 1 .4 2 .9 3 .3 1.3-.8 1-2.4-.5-2.9h-.3c-.8-.2-1.4 0-2.4-.2-2.6-.4-1.6 1.6-3.3 1.6-1 0-2 0-1.6 1.2.2.8.2 1-.8.9l-1-.2c-.7 0-1.5.6-.8 1.3.7 1-1.2 1-1.6 1.5-.8 1 1 2.6 2.8.7 2-2.2 3.2.3 1.5.6h-.3c-.8 0-1.7.1-1.7 1.2-.1.8.8 1.3 1.5 1.5z" clip-rule="evenodd"/>
  <path fill="#DDA642" fill-rule="evenodd" d="M99.6 78.1a5.3 5.3 0 006-2.7l-3.2.5c-1 .3-2 .7-2.8 1.5-.2.2-.4.5-.2.6l.2.1z" clip-rule="evenodd"/>
  <path fill="#A3550B" fill-rule="evenodd" d="M96.5 72.2c-2-.7-6.4-3-8.1-4.3-.4-.2-1-1 0-.4 1.4.8 2.5 1.7 4.1 2.4 2.3 1.1 4.7 2.1 7.2 2.8.1 0 1.3.4.8.7L97 72.3l-.5-.1zM87.9 70.8c1 .7 2 1 3.2 1.8 1 .7 3 1 4 1.8a31.3 31.3 0 01-6.6-2.7c-.3-.3-2.2-1.7-1.8-2l1.2 1zM88.7 66.7c.2-.3 1-1 1.4-1.2.1 0 2.8-.3 2.4.2-.4.3-1.1-.1-1.8.2-.4.2-.2 0-.6.4-.2.2-.5 0-1 .4 0 0-.4.2-.4 0zM97.6 66.4c1.2.6 2.7 1 3 2.6 0 .4-.3-.4-.7-.8-.6-.5-1.5-.8-2-1.1-.8-.8-2.4-.4-3.5-1-.1 0-1-.2-.3-.6.3-.1 3.2.7 3.5.9zM98.6 68.7c1.5.7 2.5 1.5 2.7 3.3 0 .4-.2.7-.2.3 0-1.1-1.2-2.4-2.1-3-1.5-1-3-1.9-.4-.6zM96.5 69.7c-.5-.3-3.8-2.3-4.8-2.3-.2 0-1.4-.1-.4.2 2.3.5 2.7.5 4.5 1.4l1 .7h-.3zM97 76.4c-2.3-.8-2-.7-3.9-1.6-.6-.3.6.7.8.8 1.6 1 1.2.9 2.9 1.3.5.1.6-.4.3-.5zM111.7 77.3c-.6 5.3 9 5 8 1.7-.5-1.4-1.7-1-2.7-.6-.8.3-2.2.5-2.2-.7 0-.6 1-1.7-.4-2.2-1.2-.5-2.3.6-2.7 1.8z" clip-rule="evenodd"/>
  <path fill="#DDA642" fill-rule="evenodd" d="M114.7 79.2c-.5-.6 0-.7-.9-.8-1-.2-.5-1.5.3-1.7.6 0-1.4 1.2 0 1.4 1 0 .2 2.1 3.8.9.2 0 .7-.4.8-.1-1.1.6-3 1.4-4 .3zm-1.2-2.6c-1.5 1.4-.4 2.1 1 3 1.2.6 3 .6 4-.2 0 0 1-1 .6-.3-.4.9-1.7 1.2-2.6 1.2-1.5 0-3.8-.6-4-2.4-.1-1.5 2.5-2.4 1.3-1.5l-.3.2z" clip-rule="evenodd"/>
  <path fill="#DDA642" fill-rule="evenodd" d="M121.8 77.9c1.1 0 2.1 1 2.3 2 .1 1.2-.5 2.3-1.3 3-1 .6-2 .9-3.2.9-1 0-2-.3-2.8-.7-.6-.3-1.3-.7-1.5-1.4-.2-.8.5-1.8 1.3-1.8.6 0 1.1.3 1.6.5.5.3 1 .6 1.5.7.6 0 1.2-.4 1.2-1 0-.4-.3-.7-.3-1.1 0-.6.6-1 1.2-1.1z" clip-rule="evenodd"/>
  <path fill="#A3550B" fill-rule="evenodd" d="M122.5 81.7c1-1 .9-1.7 0-2.7-.4-.5-1.4-.6-.6 0 .8.5 1.6 1.7.4 2.4-1.8 1-4.6 1.3-6-.5-.7-.9-.2 1.8 3.6 1.8 1 0 1.9-.4 2.6-1z" clip-rule="evenodd"/>
  <path fill="#A3550B" fill-rule="evenodd" d="M121.9 80.7c.4-.7 0-1.7-.1-.9-.5 2.8-5 1-5 1 .4.7 2.4 1.1 3.3 1 .6-.2 1.4-.6 1.8-1z" clip-rule="evenodd"/>
  <path fill="#DDA642" fill-rule="evenodd" d="M111.4 77.4c1 0 2 1 2 2.1.2 1.1-.5 2.2-1.4 2.9a5 5 0 01-3.1.7c-1 0-2-.3-2.8-.8-.7-.3-1.3-.7-1.4-1.4-.2-.8.5-1.8 1.4-1.8.5 0 1 .3 1.5.6.5.4 1 .7 1.5.7.6 0 1.2-.3 1.2-.9 0-.4-.3-.7-.3-1.1 0-.6.7-1 1.4-1z" clip-rule="evenodd"/>
  <path fill="#A3550B" fill-rule="evenodd" d="M111.8 81.2c1.1-.8 1-1.7.2-2.7-.5-.6-1.4-.6-.7-.2.9.7 1.7 2.2 0 2.7-1.6.5-2.3 1-4.1.3a3 3 0 01-1.6-1.4c-.2-.3-.5.5.7 1.3 1 .8 3.1 1 4.3.6l1.3-.6z" clip-rule="evenodd"/>
  <path fill="#A3550B" fill-rule="evenodd" d="M111.3 80.2c.6-.7-.1-1.6-.1-1.1 0 .7-.3 1-1 1.4-1.7.8-4-.7-4.2-.5.3.6 2.2 1.2 3 1.2.9 0 1.6-.5 2.3-1z" clip-rule="evenodd"/>
  <path fill="#DDA642" fill-rule="evenodd" d="M93.7 77c-1-.2-2.2.7-2.4 1.7-.3 1.1.1 2.3 1 3a5 5 0 002.9 1.3c1 .1 2 0 2.9-.3.7-.2 1.3-.5 1.6-1.1.4-.8-.2-1.9-1-2-.6-.1-1.2 0-1.7.3-.5.2-1 .5-1.6.4-.6 0-1.1-.5-1-1 0-.4.4-.7.5-1.1 0-.6-.6-1.2-1.2-1.2z" clip-rule="evenodd"/>
  <path fill="#A3550B" fill-rule="evenodd" d="M92.6 80.6c-1-1-.6-1.8.3-2.6.5-.5 1.5-.5.6 0s-1.7 1.5-.6 2.4c1.6 1.2 4.3 1.8 6 .2.7-.8 0 1.9-3.9 1.3-1-.1-1.8-.6-2.4-1.3z" clip-rule="evenodd"/>
  <path fill="#A3550B" fill-rule="evenodd" d="M93.3 79.7c-.3-.7.2-1.6.2-.8.1 2.7 4.9 1.5 5 1.6-.7.6-2.7.7-3.5.5-.7-.2-1.3-.7-1.7-1.3z" clip-rule="evenodd"/>
  <path fill="#4C6111" fill-rule="evenodd" d="M102.7 53.2c2-1 5.5-1.5 7.7-1.3.6 0 1 .4 1.1.4-1 .7-3.1 1.8-3 1.3.1-1.3-5 .6-6 .8l.2-1.2z" clip-rule="evenodd"/>
</svg>
