<svg xmlns="http://www.w3.org/2000/svg" width="69" height="27" fill="none">
    <path fill="#1B1918" fill-rule="evenodd" d="M31.895 17.587c.118.189.462.316.662.35 5.678.318 13.455-6.36 15.655-11.381.342-.78.771-2.075.2-2.799-.492-.6-1.99-.307-2.64-.141-1.445.369-2.95 1.094-4.197 1.924-.165.11-.328.223-.488.34-3.02 2.202-5.842 4.716-8.47 7.362-.206.278-.411.553-.619.83a125.328 125.328 0 01-4.422 5.59c-1.241 1.47-2.572 2.977-3.995 4.276l-.009.007-.01.006a.42.42 0 01-.198.074.265.265 0 01-.229-.116c-.125-.119-.119-.307-.024-.45.174-.294.464-.655.669-.934a79.481 79.481 0 011.823-2.375 93.196 93.196 0 016.54-7.385 261.98 261.98 0 005.97-8.344c.635-.922 1.265-1.847 1.891-2.775.197-.29.524-.849.74-1.095.112-.167.3-.199.471-.086.146.121.16.348.036.498-.166.28-.381.577-.563.848a297.861 297.861 0 01-5.719 8.225c1.838-1.683 3.746-3.295 5.76-4.758a15.524 15.524 0 012.467-1.444c1.295-.613 4.604-1.91 5.726-.55.776.98.33 2.506-.132 3.56C46.535 12 38.88 18.5 33.124 18.68c-.213.007-.424-.016-.636-.01h-.014l-.015-.004c-.464-.12-.947-.261-1.16-.75a1.205 1.205 0 01.038-.958c.067-.187.285-.296.448-.174.16.078.23.293.154.462-.101.203-.049.206-.044.34zM51.28 17.124c-.017-.213-.159-.294-.307-.246-.031.044-5.324 2.543-7.325 2.356-.146.005-.202-.036-.23-.035.042-.259.394-.828 1.993-2.383.335-.269.459-.402.444-.658.002-.043-.025-.085-.022-.128.002-.043-.027-.042-.025-.085-.03.001-.027-.042-.056-.04-.083-.084-.17-.08-.26-.034-.7.538-2.72 1.252-3.251.842l.06-.045.311-.354c.121-.09.165-.348.115-.518-.078-.168-.221-.206-.374-.072l-.34.354c-.153.134-.308.31-.493.489-1.35 1.247-2.145 2.474-2.094 3.158.044.255.152.423.327.416l.173.037c1.05-.036 2.203-1.405 2.488-2.357l.043-.259c.462.07 1.05-.037 1.615-.228-.803.842-1.25 1.543-1.163 2.097.04.341.262.548.668.576l.35-.012c2.278-.08 6.973-2.3 7.182-2.394.119-.047.218-.264.171-.477zm-9.349.457c-.214.735-1.144 1.753-1.934 1.824.135-.348.586-1.135 1.75-2.204l.09-.046c-.004.086.023.128.077.212.029-.001.056.04.017.214zm20.56-.85c-.047-.213-.188-.293-.307-.246-1.864 1.05-5.603 2.295-6.858 2.34l-.059.002c-.087.003-.175.006-.172-.037-.072-.298.368-1.427 1.27-3 .123-.134.162-.306.115-.519-.024-.085-.08-.126-.137-.166-.085-.04-.204.007-.267.095-1.28 1.03-4.507 3.585-5.221 3.867-.326.097-.472.102-.501.103.007-.129.147-.562.847-1.658.097-.174.082-.43.001-.557-.11-.124-.285-.118-.382.057-.858 1.315-1.133 2.096-.954 2.56.1.297.3.376.533.368.175-.007.384-.1.562-.149.656-.28 2.907-2.03 4.277-3.105-.557 1.133-.776 1.955-.627 2.42.045.256.206.507.614.493l.06-.002c1.342-.047 5.112-1.336 7.034-2.389.122-.09.221-.307.172-.477zm-1.195 2.698c1.05-.037 2.203-1.405 2.458-2.357l.034-.087c.736.403 2.518.855 4.051-.013.151-.091.25-.309.201-.478-.047-.213-.157-.337-.307-.247-2.158 1.104-3.705.088-4.123-.284l.032-.043.34-.355c.121-.09.165-.348.086-.517-.049-.17-.222-.206-.346-.073l-.34.354c-.152.134-.307.31-.521.49-1.35 1.246-2.145 2.474-2.065 3.156.015.257.152.423.298.418l.202.036zm.07-.774c.136-.347.587-1.134 1.752-2.203l.06-.045c.025.085.052.127.106.21.029 0 .056.041-.012.215-.185.735-1.115 1.753-1.905 1.823zM15.212 15.184c-.619.472-1.239.941-1.86 1.409-3.521 2.647-7.177 5.339-10.9 7.693-.484.295-1.146.294-1.5-.164-.768-.995.44-2.989 1.002-3.832.402-.603.816-1.198 1.24-1.786 2.618-3.636 5.638-7.058 8.792-10.25 1.917-1.942 3.927-3.85 5.999-5.635-1.733.429-3.641 1.28-5.199 2.07-1.382.7-5.76 3.107-6.149 4.694-.07.29.071.464.307.61.16.091.212.318.12.475-.084.167-.302.265-.46.155-.533-.32-.745-.789-.599-1.401.453-1.896 4.731-4.281 6.357-5.112 1.808-.923 4.808-2.267 6.838-2.44.15.013.267.114.314.268a.47.47 0 01-.144.39c-.498.455-1.051.896-1.56 1.346a109.13 109.13 0 00-3.843 3.57c-3.697 3.599-7.255 7.52-10.262 11.7-.418.58-.826 1.168-1.222 1.763-.329.493-1.474 2.348-1 2.959.146.204.49.101.673-.013 3.69-2.323 7.315-4.988 10.798-7.611a270.943 270.943 0 005.255-4.057 88.292 88.292 0 014.38-4.096c.668-.61 1.425-1.262 2.031-1.927.327-.374 1.3-1.578 1.913-1.26.293.172.244.52.208.806l-.005.038-.024.021c-.026.04-.02.068-.063.107-.91.979-2.04 1.93-3.06 2.797a174.95 174.95 0 01-4.939 4.02c-4.286 4.313-7.838 8.803-10.785 14.118-.076.128-.19.212-.342.2a.269.269 0 01-.143-.054c-.15-.104-.163-.337-.083-.498 2.247-4.045 4.853-7.633 7.915-11.074zm1.056 5.281c.13-.14.345-.105.447.039.111.155.07.34-.05.482l-.008.01-.14.103c-.066.06-.145.103-.236.096-.103-.01-.175-.056-.241-.15-.08-.157-.053-.38.102-.487l.126-.093z" clip-rule="evenodd"/>
</svg>
