<?xml version="1.0" standalone="no"?>
<!DOCTYPE svg PUBLIC "-//W3C//DTD SVG 20010904//EN"
 "http://www.w3.org/TR/2001/REC-SVG-20010904/DTD/svg10.dtd">
<svg version="1.0" xmlns="http://www.w3.org/2000/svg"
 width="1008.000000pt" height="1008.000000pt" viewBox="0 0 1008.000000 1008.000000"
 preserveAspectRatio="xMidYMid meet">
<metadata>
Created by potrace 1.11, written by Peter Selinger 2001-2013
</metadata>
<g transform="translate(0.000000,1008.000000) scale(0.100000,-0.100000)"
fill="#000000" stroke="none">
<path d="M5819 8357 c-14 -12 -43 -60 -64 -107 -21 -47 -46 -103 -57 -124 -10
-22 -18 -44 -18 -48 0 -15 -38 -50 -47 -45 -13 8 -93 18 -168 21 -83 3 -179
-9 -274 -35 -67 -18 -111 -19 -152 -5 -8 3 -25 8 -39 10 -14 3 -36 8 -50 11
-14 3 -34 8 -45 10 -11 3 -31 7 -45 10 -14 4 -36 8 -50 11 -14 3 -41 9 -60 14
-19 5 -52 11 -72 14 -21 2 -41 7 -45 9 -4 3 -24 8 -43 11 -74 12 -96 16 -120
23 -14 3 -34 7 -45 8 -11 2 -31 5 -45 8 -30 7 -65 14 -145 27 -33 6 -73 13
-90 16 -16 3 -41 7 -55 8 -14 2 -38 6 -55 9 -16 4 -54 9 -84 12 -30 4 -63 9
-75 11 -32 6 -129 19 -226 29 -30 4 -71 8 -90 11 -137 17 -467 24 -570 12
-202 -24 -268 -88 -188 -184 49 -60 247 -214 274 -214 4 0 15 -6 23 -14 9 -7
50 -31 91 -52 41 -21 77 -41 80 -44 11 -11 408 -201 481 -230 26 -10 68 -29
95 -41 89 -39 266 -113 274 -114 4 0 257 -99 345 -135 11 -4 46 -17 78 -29 31
-12 81 -30 110 -40 87 -33 328 -118 397 -141 36 -11 72 -24 80 -27 8 -3 20 -7
25 -8 6 -2 57 -18 115 -38 58 -19 166 -54 240 -76 74 -23 153 -48 175 -56 72
-24 515 -150 675 -191 8 -2 42 -11 75 -19 33 -9 69 -18 80 -20 11 -2 38 -9 60
-14 22 -5 54 -13 70 -17 17 -4 35 -8 40 -10 6 -1 21 -4 35 -7 14 -3 99 -21
190 -40 91 -19 183 -38 205 -41 22 -3 51 -8 65 -10 74 -13 212 -32 310 -42 90
-10 301 -11 355 -1 28 4 59 9 70 11 11 1 30 8 43 15 12 6 22 9 22 6 0 -11 60
36 75 58 51 79 9 174 -135 301 -63 55 -304 221 -385 265 -22 12 -56 31 -75 43
-62 37 -293 162 -355 192 -33 16 -90 44 -128 62 -37 18 -70 33 -72 33 -3 0
-30 12 -60 26 -31 14 -58 25 -61 25 -3 0 -20 6 -37 14 -83 37 -360 141 -368
139 -4 -1 -31 24 -61 55 -103 106 -187 171 -300 232 -43 23 -78 45 -78 50 0 5
16 64 35 131 47 162 54 224 29 248 -48 44 -144 54 -185 18z"/>
<path d="M1209 7814 c-7 -9 -14 -25 -16 -36 -7 -44 -68 -128 -94 -128 -5 0
-16 -11 -24 -24 -13 -20 -14 -32 -6 -61 8 -32 8 -35 -7 -31 -37 11 -115 18
-139 11 -28 -7 -28 -21 1 -87 15 -36 15 -38 -8 -65 -14 -17 -42 -33 -67 -40
-24 -6 -57 -17 -73 -23 -28 -10 -28 -11 -11 -30 10 -10 20 -18 24 -18 12 4 87
-40 112 -65 61 -62 87 -137 93 -274 3 -64 21 -105 60 -133 29 -21 102 -40 155
-40 35 0 42 -3 33 -12 -30 -30 -4 -96 52 -134 20 -14 36 -22 36 -18 0 3 6 2
13 -4 11 -10 51 -19 109 -26 44 -6 113 -44 218 -122 55 -41 104 -74 110 -74 5
0 10 -4 10 -9 0 -10 87 -49 122 -55 65 -10 116 55 134 174 8 47 7 319 0 395
-3 33 -9 86 -12 118 -3 32 -7 68 -10 80 -2 12 -6 39 -9 62 -3 22 -8 54 -12 70
-3 17 -7 39 -9 50 -12 82 -60 255 -88 319 -39 87 -55 95 -206 102 -121 6 -137
-3 -120 -68 20 -72 46 -191 53 -243 4 -30 3 -29 -58 31 -57 57 -121 137 -124
157 0 4 -8 23 -16 43 -8 20 -15 42 -15 49 0 15 -63 100 -94 128 -22 19 -78 47
-94 47 -5 0 -16 -7 -23 -16z"/>
<path d="M3121 7407 c-39 -43 -50 -107 -46 -271 2 -83 6 -160 8 -171 3 -11 6
-25 6 -32 1 -7 8 -10 16 -7 12 5 13 41 2 94 -1 3 5 16 12 28 14 26 23 23 27
-10 2 -13 6 -32 8 -43 2 -11 5 -23 5 -27 1 -8 51 15 51 25 0 4 7 7 16 7 10 0
14 6 10 18 -24 82 -27 104 -15 118 20 24 27 16 45 -46 9 -33 21 -60 26 -60 16
0 88 40 88 49 0 5 -9 20 -20 34 -11 14 -20 32 -20 41 0 9 -5 16 -11 16 -8 0
-8 5 1 15 16 20 29 19 38 -2 12 -30 54 -93 60 -93 4 0 26 7 49 16 l43 17 -33
41 c-49 60 -51 66 -25 61 21 -4 87 -70 88 -87 0 -11 32 -10 50 2 13 8 12 12
-6 29 -12 10 -38 40 -59 65 -41 50 -145 131 -215 167 -31 15 -66 23 -111 25
-58 3 -69 0 -88 -19z"/>
<path d="M3611 7111 c-12 -8 -6 -22 30 -75 46 -68 59 -79 84 -70 22 9 20 15
-35 88 -53 69 -56 71 -79 57z"/>
<path d="M3505 7063 c-11 -3 -30 -9 -43 -14 l-22 -9 40 -80 40 -80 50 19 c28
11 50 16 50 13 0 -4 5 1 11 11 5 9 6 23 2 31 -14 23 -96 116 -102 115 -3 -1
-15 -4 -26 -6z"/>
<path d="M3390 7023 c-32 -10 -80 -34 -80 -41 -1 -23 47 -152 56 -152 17 0
124 49 124 56 0 4 -13 29 -30 56 -16 26 -30 52 -30 57 0 14 -24 29 -40 24z"/>
<path d="M3213 6939 c-23 -10 -44 -23 -47 -27 -5 -9 26 -157 36 -167 3 -3 29
5 58 20 42 22 50 29 45 46 -4 12 -17 49 -28 84 l-22 64 -42 -20z"/>
<path d="M3741 6931 c-23 -6 -22 -8 37 -87 53 -72 63 -81 86 -77 14 3 26 9 26
13 0 12 -104 153 -115 156 -5 1 -21 -1 -34 -5z"/>
<path d="M3611 6879 c-30 -10 -56 -21 -59 -23 -2 -3 12 -33 33 -68 20 -35 40
-70 45 -78 7 -13 25 -15 55 -6 61 18 95 30 95 34 0 5 -111 162 -113 161 -1 -1
-26 -10 -56 -20z"/>
<path d="M3105 6880 c-5 -8 0 -94 10 -159 3 -21 20 -24 38 -7 13 14 13 24 -5
96 -20 76 -29 92 -43 70z"/>
<path d="M3448 6812 c-32 -14 -58 -31 -58 -37 0 -12 27 -85 56 -153 l14 -33
28 19 c15 11 29 20 32 20 3 1 22 8 42 16 l37 16 -15 37 c-37 90 -58 132 -68
136 -6 2 -37 -7 -68 -21z"/>
<path d="M8862 6737 c-17 -18 -61 -102 -67 -127 -18 -72 -56 -140 -100 -178
-15 -13 -55 -29 -96 -37 -39 -8 -83 -23 -98 -33 -14 -11 -33 -22 -41 -25 -8
-4 -33 -18 -55 -31 -22 -14 -60 -37 -85 -51 -45 -26 -77 -61 -65 -73 3 -3 44
-6 91 -7 l85 0 11 -37 c6 -20 16 -39 23 -42 6 -2 40 2 74 9 68 14 89 6 93 -38
1 -12 2 -29 4 -37 1 -8 2 -23 3 -32 1 -17 3 -17 44 -1 23 9 47 20 52 24 18 13
57 -14 78 -53 10 -21 23 -38 28 -38 10 0 6 237 -5 280 -13 55 -13 114 -2 144
7 17 17 40 21 51 4 11 9 25 11 30 1 6 14 45 28 87 36 111 40 144 26 188 -16
48 -32 55 -58 27z"/>
<path d="M3310 6742 c-8 -3 -31 -15 -51 -28 -20 -13 -40 -20 -44 -16 -9 8 -1
-29 27 -126 25 -81 21 -80 103 -27 l55 35 -16 37 c-9 21 -22 52 -28 68 -18 48
-30 62 -46 57z"/>
<path d="M3893 6713 c-28 -5 -29 -20 -3 -53 11 -14 20 -31 20 -37 0 -7 3 -13
8 -13 4 0 17 -20 30 -44 23 -43 24 -44 58 -33 19 6 34 14 34 18 0 12 -112 169
-119 168 -3 -1 -16 -4 -28 -6z"/>
<path d="M3730 6668 c-30 -12 -57 -23 -60 -25 -5 -5 40 -92 58 -111 6 -7 12
-19 12 -26 0 -7 8 -21 19 -30 18 -16 23 -16 92 9 40 14 74 25 76 25 4 0 -28
51 -42 66 -5 6 -23 34 -40 62 -16 29 -37 51 -45 51 -8 0 -40 -10 -70 -21z"/>
<path d="M3147 6659 c-13 -8 -17 -18 -12 -37 3 -15 7 -36 9 -47 10 -50 29
-121 35 -127 3 -4 16 2 29 12 25 20 24 30 -2 115 -9 28 -16 60 -16 73 0 24
-14 28 -43 11z"/>
<path d="M3531 6574 c-53 -25 -71 -38 -64 -47 5 -6 23 -43 38 -82 38 -94 43
-99 69 -82 12 7 50 24 84 37 61 22 86 45 65 59 -6 3 -12 11 -14 16 -21 53 -75
135 -88 134 -9 0 -49 -16 -90 -35z"/>
<path d="M2121 6560 c-5 -3 -11 -38 -15 -78 -16 -194 -72 -275 -177 -257 -36
6 -170 79 -177 97 -19 48 -87 -84 -108 -212 -29 -168 26 -374 129 -487 20 -23
52 -31 59 -15 2 4 21 19 43 32 49 30 46 27 127 95 37 30 70 55 73 55 9 0 -40
-54 -138 -150 l-98 -97 43 -54 c66 -84 122 -148 234 -267 l62 -66 43 28 c71
47 176 136 302 259 32 31 63 57 67 57 4 0 10 6 13 14 3 8 15 20 26 26 20 10
20 9 9 -17 -22 -53 -88 -128 -243 -281 l-156 -153 97 -92 c174 -165 223 -209
242 -221 7 -4 31 7 61 28 27 20 53 36 59 36 6 0 12 4 14 8 2 4 18 18 36 31 23
16 32 18 32 9 0 -16 -53 -102 -76 -126 -9 -8 -22 -26 -31 -39 -15 -22 -14 -25
3 -39 76 -60 188 -126 274 -162 34 -14 149 -33 350 -56 25 -3 61 -8 80 -11 57
-8 211 -23 313 -30 37 -2 72 -7 77 -10 15 -9 21 13 7 27 -41 42 -112 138 -142
192 -43 77 -62 130 -69 194 l-6 50 52 -3 c31 -2 88 6 143 20 49 13 105 26 123
29 45 6 48 11 26 42 -11 15 -24 34 -29 43 -6 9 -32 48 -59 88 l-49 72 -99 -97
c-54 -53 -103 -98 -108 -100 -16 -6 89 185 128 233 4 6 11 16 16 23 5 8 -32
72 -105 180 -62 92 -119 173 -126 180 -7 7 -13 20 -13 28 0 8 -4 14 -8 14 -5
0 -19 18 -31 40 -20 36 -25 39 -39 28 -17 -14 -103 -91 -134 -120 -10 -10 -20
-18 -23 -18 -4 0 -28 -18 -59 -45 -27 -24 -176 -118 -176 -111 0 3 6 11 13 18
7 7 46 58 87 113 41 55 110 134 152 176 43 42 78 81 78 87 0 6 -6 17 -13 24
-7 7 -28 33 -47 58 -19 25 -38 47 -42 48 -5 2 -8 10 -8 17 0 7 -3 15 -8 17 -4
2 -32 32 -62 68 -100 117 -124 144 -223 242 l-98 98 -76 -93 c-87 -104 -103
-122 -227 -253 -49 -52 -93 -94 -98 -94 -8 0 32 84 55 115 4 5 20 29 35 51 38
58 88 113 147 159 27 22 61 50 76 63 14 12 34 29 45 37 15 11 17 18 8 31 -9
16 -157 97 -209 115 -11 4 -33 12 -50 17 -30 10 -98 26 -165 38 -44 8 -229 11
-239 4z m236 -65 c81 -6 101 -9 167 -31 50 -17 146 -62 146 -70 0 -6 -33 1
-47 9 -7 4 -43 14 -80 20 -83 16 -201 5 -307 -27 -27 -8 -52 -13 -56 -11 -10
6 -6 93 5 104 10 9 83 19 97 13 4 -1 38 -5 75 -7z"/>
<path d="M3395 6520 c-3 -6 -34 -24 -67 -41 -47 -24 -58 -34 -53 -47 4 -9 11
-30 17 -47 5 -16 12 -37 15 -45 4 -8 8 -26 10 -39 8 -49 14 -51 68 -28 28 11
52 24 55 28 3 3 15 9 28 13 26 8 30 47 7 66 -8 6 -14 15 -12 18 1 4 -7 31 -18
60 -21 58 -39 80 -50 62z"/>
<path d="M4021 6499 c-21 -8 -22 -11 -9 -32 8 -12 21 -33 29 -46 8 -14 22 -34
32 -45 9 -11 17 -24 17 -29 0 -5 9 -22 21 -38 17 -24 25 -28 47 -23 15 4 28 8
30 9 7 6 -123 215 -133 214 -5 0 -21 -5 -34 -10z"/>
<path d="M3875 6449 c-38 -16 -75 -29 -82 -29 -9 0 -2 -19 18 -52 17 -29 33
-61 36 -70 3 -10 9 -18 14 -18 5 0 9 -6 9 -12 0 -7 8 -25 18 -40 l17 -26 75
25 c113 39 110 28 38 141 -9 15 -24 41 -33 59 -28 53 -34 54 -110 22z"/>
<path d="M3206 6414 c-27 -24 -28 -27 -16 -67 6 -23 13 -49 14 -57 5 -28 29
-100 34 -100 2 0 17 8 33 17 23 14 28 23 25 43 -2 14 -5 25 -6 25 -1 0 -3 8
-5 17 -4 20 -46 148 -48 148 -1 0 -15 -12 -31 -26z"/>
<path d="M3720 6388 c-14 -7 -45 -20 -70 -30 -93 -39 -91 -37 -74 -69 8 -16
12 -29 10 -29 -3 0 6 -22 19 -49 14 -27 25 -53 25 -57 0 -5 9 -20 18 -32 l18
-24 65 27 c68 29 132 57 138 61 2 2 -6 15 -16 31 -11 15 -37 63 -59 105 -21
43 -41 78 -44 77 -3 0 -16 -5 -30 -11z"/>
<path d="M5491 6337 c-5 -7 -23 -67 -41 -134 -18 -66 -41 -135 -51 -153 -19
-30 -21 -31 -42 -16 -65 47 -79 50 -204 51 -68 0 -123 -3 -123 -8 0 -4 -5 -5
-10 -2 -11 7 -80 -13 -80 -23 0 -3 19 -26 42 -49 30 -30 37 -43 25 -43 -9 0
-41 -11 -72 -24 l-55 -25 27 -45 c29 -48 81 -80 149 -93 45 -8 157 -9 194 -1
28 6 60 -10 60 -29 0 -7 4 -13 8 -13 5 0 17 -18 27 -40 10 -22 22 -40 27 -40
4 0 8 -6 8 -14 0 -22 85 -104 115 -112 32 -8 33 -7 41 42 21 137 45 196 77
190 183 -36 240 -46 284 -49 l52 -3 -22 36 c-32 53 -121 137 -164 155 -34 14
-95 28 -130 28 -42 1 -60 93 -40 202 25 139 14 195 -41 211 -46 12 -51 12 -61
1z"/>
<path d="M3425 6250 c-38 -22 -69 -45 -68 -52 4 -29 14 -69 23 -93 5 -14 7
-25 4 -25 -4 0 -2 -6 3 -12 6 -7 16 -30 22 -50 7 -21 14 -38 16 -38 4 0 158
78 173 88 11 7 10 16 -5 43 -10 19 -32 67 -47 107 -16 39 -34 72 -40 71 -6 0
-42 -18 -81 -39z"/>
<path d="M4174 6248 c-21 -10 -20 -12 28 -98 l49 -89 30 11 c16 6 29 13 27 17
-43 89 -91 171 -101 170 -6 0 -22 -5 -33 -11z"/>
<path d="M4049 6209 c-8 -4 -40 -15 -71 -25 l-57 -18 46 -88 c37 -72 50 -88
69 -88 12 0 25 4 28 9 3 4 27 14 53 21 83 22 85 25 64 63 -9 17 -30 56 -46 84
-28 53 -46 62 -86 42z"/>
<path d="M3280 6167 c-19 -11 -36 -21 -37 -22 -2 -1 12 -54 41 -160 1 -5 6
-25 10 -42 4 -18 10 -33 12 -33 12 0 74 46 74 55 0 6 -10 44 -21 85 -11 41
-23 87 -26 103 -7 37 -13 39 -53 14z"/>
<path d="M3805 6119 c-44 -23 -90 -47 -102 -55 l-22 -14 30 -67 c17 -38 35
-78 39 -89 8 -21 10 -21 115 21 58 24 109 45 111 48 3 3 1 13 -5 24 -5 10 -26
53 -46 96 -21 42 -38 77 -39 77 -1 0 -38 -18 -81 -41z"/>
<path d="M8074 6062 c-54 -40 -108 -81 -119 -90 -37 -32 -210 -138 -283 -175
-79 -40 -205 -91 -235 -96 -4 0 -22 -7 -40 -14 -17 -8 -60 -19 -95 -27 -55
-11 -60 -14 -44 -26 13 -9 39 -11 88 -7 115 9 165 6 185 -13 19 -17 20 -17 35
4 23 33 77 60 129 63 101 7 248 -92 354 -237 16 -23 27 -45 24 -48 -4 -3 -2
-6 4 -6 5 0 20 -24 32 -52 13 -29 32 -73 44 -98 11 -25 34 -94 52 -154 l31
-109 95 94 c52 52 117 121 144 154 27 33 52 62 56 65 13 10 139 200 139 209 0
5 4 11 9 13 22 8 141 290 141 333 0 9 -12 36 -26 61 -31 53 -54 56 -125 17
-51 -27 -58 -27 -64 4 -2 10 -4 18 -5 18 -1 0 -3 17 -5 37 -2 21 -9 47 -15 59
-11 19 -18 20 -78 15 -74 -6 -85 -2 -90 34 -2 14 -8 30 -13 35 -6 6 -59 10
-118 10 l-108 0 -99 -73z"/>
<path d="M4600 6052 c-37 -4 -163 -33 -175 -40 -5 -4 -12 -7 -15 -8 -8 -1 -85
-39 -90 -44 -3 -3 -23 -18 -45 -35 -60 -45 -139 -128 -180 -190 -58 -88 -118
-271 -130 -396 -2 -24 -6 -63 -10 -87 -14 -106 -14 -228 0 -252 8 -14 22 -39
31 -57 9 -17 28 -34 42 -38 30 -7 29 -9 36 42 11 81 43 136 132 224 47 46 93
96 102 111 9 16 20 28 24 28 4 0 8 4 8 10 0 11 69 111 83 121 5 3 7 8 6 10 -5
6 30 54 35 48 2 -2 18 -38 34 -79 17 -41 38 -93 48 -115 10 -22 18 -42 19 -45
1 -3 18 -40 38 -84 20 -43 37 -80 37 -82 0 -2 9 -23 19 -47 61 -135 90 -288
68 -362 -13 -44 -14 -49 -16 -58 -5 -38 -195 -197 -235 -197 -9 0 -16 -4 -16
-10 0 -5 -9 -10 -21 -10 -12 0 -17 -4 -14 -11 4 -6 13 -8 20 -5 7 2 16 2 20
-2 4 -4 16 -7 28 -8 12 0 38 -4 57 -8 19 -3 64 -9 100 -12 36 -3 83 -7 105 -9
49 -5 422 -6 485 -1 66 6 163 17 180 21 16 4 94 17 122 19 10 1 21 5 24 9 4 4
14 7 22 7 13 0 32 7 112 43 69 31 185 115 241 174 110 118 157 207 203 383 20
75 14 333 -9 370 -3 5 -9 23 -11 38 -9 45 -75 159 -120 205 l-43 42 -161 0
c-149 0 -163 -2 -176 -20 -19 -26 -54 -140 -54 -176 0 -16 -6 -30 -12 -31 -7
0 -20 -2 -28 -2 -8 -1 -31 7 -50 17 -41 23 -69 52 -147 159 -45 61 -77 86 -88
67 -8 -13 -129 -10 -165 4 -131 50 -144 60 -254 176 -16 17 -33 31 -38 31 -4
0 -8 4 -8 10 0 5 36 26 80 47 44 20 80 42 80 47 0 5 -3 6 -7 3 -3 -4 -11 -3
-17 2 -38 31 -221 63 -306 53z m1342 -481 c16 -2 60 -55 79 -95 41 -88 56
-248 27 -283 -6 -7 -7 -13 -3 -13 5 0 0 -9 -9 -19 -39 -43 -94 15 -181 191
-41 84 -59 130 -59 160 -1 41 0 42 39 54 34 10 59 11 107 5z m95 -489 c35 -22
3 -148 -49 -194 -22 -19 -23 -19 -40 2 -10 12 -18 37 -18 56 0 40 28 126 44
136 14 10 48 10 63 0z"/>
<path d="M4303 6036 c-26 -9 -30 -14 -22 -28 9 -17 12 -16 36 7 33 30 28 36
-14 21z"/>
<path d="M3570 6004 c-25 -13 -66 -33 -92 -44 l-48 -20 26 -68 c14 -37 30 -79
36 -94 5 -16 13 -28 16 -28 13 0 201 95 202 102 0 14 -80 178 -87 177 -5 -1
-28 -12 -53 -25z"/>
<path d="M4149 5980 c-106 -38 -103 -34 -74 -91 14 -27 27 -49 28 -49 2 0 35
30 74 68 60 56 70 70 60 83 -11 14 -20 13 -88 -11z"/>
<path d="M3965 5917 c-16 -5 -34 -13 -40 -17 -5 -4 -25 -11 -42 -15 -18 -3
-33 -10 -33 -14 0 -4 -16 -13 -35 -20 -19 -7 -35 -16 -35 -20 0 -5 10 -30 22
-57 12 -27 23 -51 23 -54 1 -3 11 -25 22 -50 11 -25 23 -55 27 -67 7 -20 25
-25 56 -13 3 2 8 2 13 1 4 0 7 4 7 9 0 6 6 10 13 10 7 0 24 25 36 55 13 30 34
71 48 91 l24 37 -32 61 c-40 77 -38 75 -74 63z"/>
<path d="M3368 5897 c-32 -26 -33 -30 -15 -49 7 -7 33 -41 59 -76 26 -35 49
-59 53 -53 7 12 -53 201 -64 201 -3 -1 -18 -11 -33 -23z"/>
<path d="M3632 5766 c-104 -54 -106 -56 -91 -92 23 -58 28 -70 45 -116 9 -27
21 -48 25 -48 5 0 9 -6 9 -14 0 -7 7 -19 15 -26 12 -10 33 -3 115 36 55 27
100 54 100 60 0 6 -15 42 -34 80 -18 38 -43 90 -55 117 -12 26 -27 47 -34 46
-6 0 -49 -20 -95 -43z"/>
<path d="M6805 5780 c-12 -19 -16 -124 -6 -140 7 -10 32 -15 83 -16 122 -4
142 -11 191 -62 24 -25 26 -33 18 -55 -6 -15 -14 -27 -18 -27 -12 0 -103 -89
-103 -100 0 -6 10 -10 23 -11 12 -1 36 -2 52 -4 36 -3 55 6 115 55 44 36 89
53 180 66 85 12 150 52 150 92 0 16 -45 28 -80 21 -19 -3 -50 -9 -68 -13 -44
-9 -44 -9 -68 -7 -11 0 -36 16 -55 35 -19 19 -48 42 -66 52 -17 11 -56 36 -87
57 -30 21 -72 44 -93 51 -50 17 -159 21 -168 6z"/>
<path d="M6075 5680 c-3 -4 -15 -6 -28 -3 -24 6 -22 4 40 -64 6 -7 25 -37 41
-65 96 -169 115 -405 51 -623 -19 -63 -65 -172 -79 -185 -3 -3 -17 -23 -31
-45 -51 -77 -217 -235 -247 -235 -28 0 -20 -22 13 -36 47 -19 117 -25 310 -26
152 0 222 3 360 17 133 14 191 21 230 29 11 3 26 5 32 5 9 1 7 11 -5 34 -10
17 -21 41 -24 52 -3 11 -22 65 -42 120 -33 91 -53 155 -60 195 -1 8 -6 35 -11
60 -29 165 9 334 89 395 36 27 100 44 169 45 42 0 48 4 47 25 -2 19 48 86 71
95 15 7 29 21 32 32 8 31 -80 68 -169 70 -80 2 -114 14 -114 40 0 10 -6 18
-12 19 -7 0 -26 3 -43 5 -16 2 -86 11 -155 19 -69 9 -138 18 -155 21 -52 10
-304 13 -310 4z"/>
<path d="M7665 5603 c-49 -17 -62 -27 -100 -78 -63 -85 -105 -106 -209 -103
-92 1 -124 -10 -177 -66 -18 -19 -36 -33 -40 -30 -4 2 -10 0 -14 -6 -4 -6 -56
-10 -126 -10 -66 0 -140 -5 -164 -11 -74 -19 -128 -88 -141 -183 -8 -61 -5
-153 7 -221 6 -33 12 -64 13 -70 1 -5 5 -16 9 -22 5 -7 6 -13 3 -13 -7 0 56
-180 90 -257 16 -36 35 -63 44 -64 47 -3 112 2 190 16 14 2 43 7 65 10 22 3
51 7 65 10 14 2 47 6 74 10 28 3 79 12 115 20 36 7 82 16 101 19 75 12 330 66
425 91 55 14 109 28 120 30 11 3 58 17 105 33 93 31 89 26 76 112 -48 336
-158 583 -316 715 -84 70 -149 90 -215 68z"/>
<path d="M3923 5534 c-3 -8 -2 -24 3 -35 8 -17 10 -15 20 16 9 28 8 35 -3 35
-7 0 -16 -7 -20 -16z"/>
<path d="M3768 5467 l-97 -41 53 -77 53 -77 -43 -53 c-50 -62 -54 -73 -19 -57
14 6 25 14 25 17 0 12 56 40 66 33 5 -4 15 -18 22 -32 31 -64 51 -93 56 -79 3
8 7 50 10 94 6 81 12 131 22 174 5 24 -21 107 -40 128 -8 9 -35 2 -108 -30z"/>
<path d="M4409 5392 c-17 -29 -36 -52 -40 -52 -4 0 -11 -9 -14 -21 -4 -12 -37
-52 -73 -91 -102 -106 -167 -215 -186 -310 -16 -80 -19 -88 -30 -79 -24 18
-123 47 -156 45 -39 -2 -106 -13 -132 -20 -54 -16 -158 -21 -178 -9 -44 27
131 -260 194 -317 10 -10 16 -18 12 -18 -3 0 23 -27 59 -59 92 -84 162 -116
246 -115 57 1 72 5 113 33 l47 32 -93 63 c-247 166 -327 224 -322 229 4 3 19
0 35 -9 16 -8 30 -13 32 -12 6 5 136 -64 156 -83 11 -11 23 -19 26 -19 6 0 92
-66 105 -80 12 -13 69 -50 77 -50 5 0 9 24 10 53 0 49 7 117 18 197 5 34 9 60
20 110 3 14 7 36 10 49 16 86 61 211 77 211 17 0 18 -229 1 -300 -8 -30 -15
-59 -16 -65 -2 -5 -12 -35 -24 -65 -32 -83 -62 -183 -57 -192 3 -4 13 -4 22 1
9 5 49 23 87 41 39 17 78 39 88 47 9 9 17 13 17 9 0 -13 63 50 91 91 41 59 50
136 27 225 -20 76 -32 108 -96 258 -24 58 -45 112 -47 120 -2 8 -13 40 -25 70
-11 30 -22 65 -24 77 -3 12 -9 30 -14 40 -9 15 -15 10 -43 -35z"/>
<path d="M581 5351 c-42 -63 -72 -74 -132 -51 -60 22 -77 18 -121 -29 -67 -71
-50 -121 68 -199 82 -55 158 -133 252 -261 124 -167 176 -250 199 -318 9 -24
8 -35 -2 -50 -20 -29 -32 -103 -29 -184 3 -70 12 -184 15 -184 0 0 3 -16 6
-35 3 -29 41 -218 58 -295 3 -11 7 -29 9 -40 2 -11 9 -40 16 -65 7 -25 14 -52
16 -60 21 -86 88 -314 130 -439 35 -104 34 -120 -2 -121 -17 0 -233 -69 -304
-97 -100 -39 -99 -39 -195 -83 -49 -23 -98 -43 -108 -45 -9 -2 -21 -6 -25 -9
-5 -3 -19 -7 -33 -10 -94 -20 -197 -69 -208 -99 -8 -22 -7 -104 3 -144 4 -19
0 -23 -31 -29 -20 -4 -45 -7 -56 -8 -10 -1 -29 -14 -42 -29 -19 -24 -22 -41
-23 -107 0 -108 13 -152 57 -192 36 -34 198 -119 256 -134 6 -1 30 -10 55 -19
56 -21 163 -54 210 -65 19 -4 60 -15 90 -23 58 -15 218 -53 260 -61 14 -3 39
-8 55 -11 17 -3 46 -8 65 -11 19 -4 42 -8 50 -9 8 -1 33 -5 55 -8 22 -3 65 -9
95 -13 30 -4 64 -8 75 -9 37 -6 119 -15 180 -20 33 -3 80 -8 105 -10 222 -24
779 -23 1030 0 30 3 80 8 110 10 100 9 155 14 180 19 14 3 48 7 75 11 83 10
119 16 132 20 6 2 38 7 70 11 32 3 61 8 64 10 3 1 28 6 55 10 27 3 56 10 64
14 8 4 21 5 28 3 31 -12 11 22 -67 106 -13 14 -35 43 -49 64 -13 20 -29 37
-33 37 -5 0 -9 6 -9 14 0 7 -11 25 -26 41 -48 52 -195 280 -324 505 -5 8 -34
67 -66 130 -48 98 -74 154 -137 300 -6 14 -11 30 -11 35 -1 11 -60 34 -92 34
-11 1 -63 16 -115 34 -321 114 -642 316 -708 444 -55 108 -77 266 -54 382 26
125 89 184 213 196 51 6 206 5 235 0 17 -3 53 -10 80 -15 28 -4 62 -11 77 -15
l27 -7 -24 71 c-13 38 -30 97 -36 130 -8 38 -18 61 -28 64 -9 3 -47 17 -86 31
-121 45 -326 98 -465 120 -19 3 -46 8 -60 11 -14 3 -41 7 -60 9 -19 2 -62 9
-95 14 -67 12 -145 23 -190 27 -16 2 -30 4 -30 5 0 1 -14 3 -32 6 -17 2 -51
10 -75 19 -73 25 -94 16 -107 -47 -8 -41 -23 -45 -43 -11 -9 16 -25 38 -35 50
-10 11 -25 31 -33 43 -8 12 -60 80 -116 151 -113 145 -174 242 -174 277 0 13
7 37 17 55 29 57 14 149 -30 186 -9 6 -30 14 -49 17 -31 5 -35 2 -67 -45z"/>
<path d="M8208 4645 c-9 -9 -197 -63 -343 -99 -5 -2 -29 -8 -53 -15 -40 -11
-302 -68 -347 -75 -18 -3 -177 -31 -235 -41 -58 -11 -148 -25 -190 -30 -25 -3
-52 -7 -60 -10 -8 -2 -44 -7 -80 -10 -36 -4 -73 -9 -82 -10 -9 -2 -45 -6 -80
-10 -35 -3 -76 -8 -93 -11 -16 -2 -55 -6 -85 -9 -30 -3 -73 -7 -95 -10 -115
-13 -439 -37 -670 -50 -597 -32 -1512 -24 -2025 20 -19 1 -71 5 -115 9 -44 4
-98 9 -120 12 -22 2 -60 6 -85 9 -55 5 -133 14 -180 21 -19 2 -53 7 -75 10
-35 4 -86 12 -200 30 -16 2 -41 6 -55 9 -14 2 -45 7 -70 11 -24 3 -47 7 -50 9
-3 2 -24 6 -46 9 -56 9 -71 12 -144 31 -36 9 -72 18 -81 20 -9 2 -38 10 -63
19 -52 18 -70 20 -62 8 4 -6 40 -174 62 -291 3 -13 11 -53 18 -88 13 -59 8
-82 -13 -69 -5 3 -29 8 -52 11 -24 3 -51 8 -59 10 -8 3 -33 7 -55 10 -22 3
-50 7 -62 9 -20 4 -147 15 -233 21 -57 3 -112 -26 -140 -76 -21 -37 -24 -56
-23 -124 2 -117 39 -211 112 -286 34 -35 161 -131 161 -123 0 4 8 1 18 -7 80
-65 363 -182 587 -244 l60 -16 24 -62 c58 -152 208 -449 317 -630 103 -169
275 -417 350 -504 10 -12 36 -42 56 -66 36 -42 43 -46 155 -75 112 -30 226
-55 303 -67 19 -3 46 -8 60 -10 53 -11 69 -13 120 -20 29 -4 60 -8 69 -10 9
-1 50 -6 91 -10 41 -4 82 -9 91 -10 8 -2 55 -6 105 -10 49 -3 109 -8 134 -11
225 -22 899 -22 1165 0 22 2 78 7 125 11 47 3 99 8 115 9 135 14 173 18 195
21 14 2 50 7 80 10 30 4 64 9 74 11 11 2 42 6 70 10 49 6 86 11 95 13 8 2 -32
41 -43 41 -29 0 -186 212 -186 251 0 5 -7 21 -16 34 -9 13 -13 29 -10 34 4 6
-8 18 -25 27 -54 27 -73 51 -72 88 1 19 4 40 9 47 4 7 8 46 9 88 1 42 4 83 6
91 14 49 71 90 128 90 19 0 32 3 29 6 -11 11 23 89 53 122 60 67 132 85 266
69 42 -6 61 6 44 27 -18 22 -16 124 3 172 10 23 28 51 41 62 23 20 79 53 90
52 46 -2 65 2 65 13 0 41 114 125 191 141 13 3 40 10 59 16 54 17 69 20 155
26 100 7 163 -9 369 -95 82 -34 149 -61 150 -59 1 2 17 41 35 88 53 133 44
125 161 147 34 6 190 52 215 63 11 5 43 18 72 29 28 11 68 29 89 41 21 11 42
20 46 20 10 0 173 97 233 138 135 94 172 145 198 269 33 157 -7 255 -113 280
-19 4 -207 3 -240 -2 -14 -2 -47 -6 -75 -10 -90 -13 -204 -41 -263 -66 l-42
-18 5 87 c2 48 5 89 5 92 3 11 1 111 -4 198 -5 88 -15 130 -28 117z m452 -505
c41 -22 22 -43 -85 -94 -71 -34 -295 -114 -343 -122 -15 -3 -32 -10 -38 -15
-18 -15 -25 4 -14 40 5 17 9 34 9 36 -1 14 13 65 17 65 3 0 60 16 127 35 67
20 131 38 142 40 11 2 20 4 20 5 0 1 16 4 35 7 19 2 36 6 37 7 8 8 77 5 93 -4z
m-6315 -154 c39 -10 76 -19 83 -21 7 -3 16 -5 20 -6 4 -1 30 -10 57 -20 43
-15 52 -23 64 -56 17 -50 23 -68 20 -68 -1 0 3 -10 10 -22 6 -13 8 -23 5 -23
-9 0 -70 19 -99 31 -11 4 -51 20 -90 35 -100 38 -217 93 -237 111 -22 20 -22
27 -3 47 19 18 72 16 170 -8z"/>
<path d="M7347 3244 c-2 -2 -21 -6 -43 -9 -21 -4 -48 -9 -59 -12 -11 -4 -25
-8 -31 -9 -50 -9 -107 -48 -150 -103 -26 -34 -52 -62 -58 -63 -6 0 -22 -2 -36
-3 -31 -2 -71 -23 -87 -44 -22 -30 -26 -97 -8 -144 15 -41 15 -47 1 -75 -9
-17 -16 -38 -16 -46 0 -8 -7 -13 -17 -10 -10 2 -62 5 -115 7 -99 4 -153 -7
-182 -36 -21 -21 -38 -67 -31 -85 7 -18 -13 -91 -29 -107 -10 -10 -17 -9 -37
6 -13 10 -36 19 -51 19 -42 0 -56 -30 -54 -116 1 -41 0 -77 -3 -80 -15 -14 -5
-33 28 -54 21 -12 43 -36 51 -54 92 -216 162 -304 256 -320 16 -3 56 -8 89
-11 33 -4 63 -13 67 -20 8 -13 25 -19 123 -40 11 -3 31 -7 45 -11 88 -20 103
-18 193 31 47 25 95 59 106 73 l20 27 9 -26 c15 -37 87 -97 157 -130 108 -51
239 -55 370 -11 28 9 54 15 59 14 14 -5 51 -3 253 7 12 0 24 9 27 19 6 16 18
18 124 17 105 -1 122 -4 162 -27 40 -22 95 -44 140 -56 8 -2 56 -5 105 -7 124
-4 200 20 264 84 25 26 54 62 64 80 16 31 19 32 40 19 12 -8 46 -21 75 -28 28
-8 53 -20 53 -27 1 -7 2 -17 3 -22 7 -52 161 -142 266 -157 52 -7 139 -7 177
1 53 10 140 52 174 82 32 29 47 35 91 38 29 2 65 8 80 14 40 15 62 64 55 125
-5 47 -57 238 -94 346 -8 25 -16 52 -18 60 -2 8 -4 16 -5 18 -2 1 -3 6 -4 11
0 5 -4 13 -8 17 -5 4 -8 14 -8 21 0 25 -109 239 -140 277 -99 117 -205 185
-310 198 -34 4 -39 14 -30 54 4 19 5 36 1 38 -4 3 -40 -6 -81 -20 -100 -32
-98 -36 -103 164 -1 48 -12 52 -54 20 -32 -26 -58 -43 -89 -59 -25 -13 -53
-70 -56 -112 -2 -16 -7 -32 -14 -37 -15 -13 -141 107 -150 143 -13 57 -33 20
-48 -88 -12 -87 -6 -260 10 -286 10 -17 -25 -38 -68 -40 l-47 -3 14 -25 c16
-30 62 -81 73 -81 4 0 7 -49 6 -109 -2 -106 14 -189 46 -244 8 -14 7 -19 -7
-23 -84 -27 -97 -61 -58 -156 12 -29 -45 -78 -90 -78 -36 0 -86 20 -117 47
-16 14 -15 19 13 73 24 47 38 61 69 74 47 19 50 28 53 154 2 80 -1 95 -16 107
-21 15 -75 4 -89 -17 -6 -10 -12 -8 -23 6 -16 22 -19 39 -16 103 2 51 -18 94
-57 122 -32 22 -68 29 -187 36 -44 2 -89 6 -100 9 -11 2 -23 5 -27 5 -5 1 -8
7 -8 15 0 36 -87 185 -140 237 -86 87 -158 129 -395 227 -120 50 -143 58 -187
68 -26 7 -156 13 -161 8z m314 -1254 c6 0 8 -4 5 -9 -11 -17 -71 0 -93 25 -23
25 -30 54 -16 67 4 4 26 -13 50 -38 25 -25 49 -45 54 -45z"/>
</g>
</svg>
